<svg viewBox="0 0 21 21" xmlns="http://www.w3.org/2000/svg" xmlns:xlink="http://www.w3.org/1999/xlink" width="21.000000" height="21.000000" fill="none" customFrame="#000000">
	<defs>
		<clipPath id="clipPath_2">
			<rect width="13.000000" height="13.000000" x="4.000000" y="4.000000" fill="rgb(255,255,255)" />
		</clipPath>
		<clipPath id="clipPath_3">
			<rect width="13.000000" height="13.000000" x="4.000000" y="4.000000" fill="rgb(255,255,255)" />
		</clipPath>
	</defs>
	<g id="组合 54">
		<rect id="矩形 41" width="21.000000" height="21.000000" x="0.000000" y="0.000000" rx="6.000000" fill="rgb(255,242,242)" fill-opacity="0" />
		<rect id="矩形 41" width="19.500000" height="19.500000" x="0.750000" y="0.750000" rx="5.250000" stroke="rgb(231,78,78)" stroke-width="1.5" />
		<g id="svg 10" clip-path="url(#clipPath_2)" customFrame="url(#clipPath_2)">
			<rect id="svg 10" width="13.000000" height="13.000000" x="4.000000" y="4.000000" />
			<g id="svg 10" clip-path="url(#clipPath_3)" customFrame="url(#clipPath_3)">
				<rect id="svg 10" width="13.000000" height="13.000000" x="4.000000" y="4.000000" />
				<path id="矢量 79" d="M10.4999 4.72223C7.32217 4.72223 4.72217 7.32223 4.72217 10.5C4.72217 13.6778 7.32217 16.2778 10.4999 16.2778C13.6777 16.2778 16.2777 13.6778 16.2777 10.5C16.2777 7.32223 13.6777 4.72223 10.4999 4.72223ZM10.4999 15.5556C7.68327 15.5556 5.44439 13.3167 5.44439 10.5C5.44439 7.68333 7.68327 5.44445 10.4999 5.44445C13.3166 5.44445 15.5555 7.68333 15.5555 10.5C15.5555 13.3167 13.3166 15.5556 10.4999 15.5556Z" fill="rgb(255,136,136)" fill-rule="nonzero" />
				<path id="矢量 79" d="M4.72217 10.5C4.72217 13.6778 7.32217 16.2778 10.4999 16.2778C13.6777 16.2778 16.2777 13.6778 16.2777 10.5C16.2777 7.32223 13.6777 4.72223 10.4999 4.72223C7.32217 4.72223 4.72217 7.32223 4.72217 10.5ZM5.44439 10.5C5.44439 7.68333 7.68327 5.44445 10.4999 5.44445C13.3166 5.44445 15.5555 7.68333 15.5555 10.5C15.5555 13.3167 13.3166 15.5556 10.4999 15.5556C7.68327 15.5556 5.44439 13.3167 5.44439 10.5Z" fill-rule="nonzero" stroke="rgb(255,136,136)" stroke-width="0.5" />
				<path id="矢量 80" d="M10.5001 12.6667C10.2834 12.6667 10.1389 12.7389 9.9945 12.8833C9.85006 13.0278 9.77783 13.1722 9.77783 13.3889C9.77783 13.6055 9.85006 13.75 9.9945 13.8944C10.1389 14.0389 10.2834 14.1111 10.5001 14.1111C10.7167 14.1111 10.8612 14.0389 11.0056 13.8944C11.1501 13.75 11.2223 13.6055 11.2223 13.3889C11.2223 13.1722 11.1501 13.0278 11.0056 12.8833C10.8612 12.7389 10.7167 12.6667 10.5001 12.6667L10.5001 12.6667ZM9.85005 6.88889L10.0667 12.0889L10.8612 12.0889L11.1501 6.88889L9.85005 6.88889Z" fill="rgb(255,136,136)" fill-rule="nonzero" />
				<path id="矢量 80" d="M9.9945 12.8833C9.85006 13.0278 9.77783 13.1722 9.77783 13.3889C9.77783 13.6055 9.85006 13.75 9.9945 13.8944C10.1389 14.0389 10.2834 14.1111 10.5001 14.1111C10.7167 14.1111 10.8612 14.0389 11.0056 13.8944C11.1501 13.75 11.2223 13.6055 11.2223 13.3889C11.2223 13.1722 11.1501 13.0278 11.0056 12.8833C10.8612 12.7389 10.7167 12.6667 10.5001 12.6667L10.5001 12.6667C10.2834 12.6667 10.1389 12.7389 9.9945 12.8833ZM10.0667 12.0889L10.8612 12.0889L11.1501 6.88889L9.85005 6.88889L10.0667 12.0889Z" fill-rule="nonzero" stroke="rgb(255,136,136)" stroke-width="0.300000012" />
			</g>
		</g>
	</g>
</svg>
