<?xml version="1.0" encoding="UTF-8"?>
<svg id="_图层_1" data-name="图层_1" xmlns="http://www.w3.org/2000/svg" version="1.1" viewBox="0 0 60 40">
  <!-- Generator: Adobe Illustrator 29.0.1, SVG Export Plug-In . SVG Version: 2.1.0 Build 192)  -->
  <defs>
    <style>
      .st0 {
        fill: #e2e2e2;
      }

      .st1 {
        fill: #dbdbdb;
      }

      .st2 {
        fill: #959fbc;
      }

      .st3 {
        fill: #92c4ff;
      }

      .st4 {
        fill: #f2f2f2;
      }
    </style>
  </defs>
  <path class="st1" d="M7.7,5.1h2.5v-.6h-3.1v3.1h.6v-2.5ZM7.7,35.2h2.5v.6h-3.1v-3.1h.6v2.5ZM52.2,5.1h-2.5v-.6h3.1v3.1h-.6v-2.5ZM52.2,35.2h-2.5v.6h3.1v-3.1h-.6v2.5Z"/>
  <g>
    <path class="st4" d="M50.3,31.9c0,.7-.6,1.3-1.3,1.3H11c-.7,0-1.3-.6-1.3-1.3V8.4c0-.7.6-1.3,1.3-1.3h38c.7,0,1.3.6,1.3,1.3h0v23.5Z"/>
    <path class="st3" d="M13.3,10.9h2.9v1.5h-2.9v-1.5ZM13.3,14.7h2.9v1.5h-2.9v-1.5ZM13.3,18.4h2.9v1.5h-2.9v-1.5Z"/>
    <path class="st0" d="M44.9,16s0,0,.1,0h.1c0,0,0,.3,0,.3,0,.5,0,.9-.2,1.2-.1.3-.3.5-.5.6-.2.6-.3,1.1-.6,1.5-.3.5-.7.9-1.3,1.1-.3,0-.9.1-1.5.1-.6,0-1.2,0-1.4-.2-.5-.2-.9-.6-1.1-1.1-.2-.4-.4-.9-.5-1.4-.2-.1-.4-.3-.5-.6-.1-.3-.2-.7-.2-1.2v-.2s.1,0,.1,0c0,0,0,0,.1,0-.2-1.9,0-2.6.6-3.5,1.4-1.1,4.6-1.1,6,0,1,.9,1,1.9.7,3.5ZM41.9,21.6v.4s-.2.4-.2.4l.4,2.4,1.5-3.2h2.3c1.2,1,1.9,3.7,1.7,5.4h-12.7c0-1.5.3-4.1,1.8-5.4h2.1s1.9,3.2,1.9,3.2l.4-2.4-.3-.4v-.4c.5,0,.7,0,1.2,0ZM43.6,15.3c-.9.2-2.3.3-3.3-.3-.4-.2-1,.2-1.5.2-.2.3-.3.6-.3,1v.3c0,0-.3,0-.3,0,0,0-.1,0-.2,0,0,0,0,0,0,0,0,.3,0,.6.1.8,0,.2.2.3.3.3h.2c0,0,0,.2,0,.2.1.5.3,1,.5,1.4.2.4.5.7.8.8.2,0,.6.1,1.2.1.5,0,1.1,0,1.3,0,.4-.2.7-.4.9-.8.2-.4.4-.9.6-1.5v-.2s.2,0,.2,0c.1,0,.2-.2.3-.3,0-.2.1-.5.1-.8,0,0,0,0,0,0,0,0-.1,0-.2,0h-.3s0-.3,0-.3c0-.3-.2-.6-.3-.9ZM17.3,10.9h8.8v1.5h-8.8v-1.5ZM17.3,14.7h8.8v1.5h-8.8v-1.5ZM17.3,18.4h8.8v1.5h-8.8v-1.5ZM21.9,28.2h13.2v1.5h-13.2v-1.5Z"/>
    <path class="st3" d="M13.3,28.2h7.7v1.5h-7.7v-1.5Z"/>
  </g>
  <path class="st2" d="M36.1,27h-12.2c-1.4,0-2.5-1.1-2.5-2.5h0v-6.8c0-1,.6-1.9,1.5-2.3,0,0,0,0,0-.1,0,0,.3-.8.5-.8h1.7c.1,0,.5.6.6.7h1s1-2,1.5-2h5.4c.5,0,1.2,2,1.2,2h1.4c1.4,0,2.5,1.1,2.5,2.5v6.8c0,1.4-1.1,2.5-2.5,2.5M24,17.7c.5,0,1-.4,1-1h0c0-.5-.4-1-1-1h0c-.5,0-1,.4-1,1,0,.5.4,1,1,1h0M30.7,16c-2.6,0-4.7,2.1-4.7,4.7s2.1,4.7,4.7,4.7,4.7-2.1,4.7-4.7-2.1-4.7-4.7-4.7M30.7,23.8c-1.8,0-3.2-1.4-3.2-3.2s1.4-3.2,3.2-3.2,3.2,1.4,3.2,3.2-1.4,3.2-3.2,3.2"/>
</svg>