<svg width="422.313" height="420.518" viewBox="0 0 422.313 420.518" fill="none" xmlns="http://www.w3.org/2000/svg"><defs><linearGradient x1="8.052" y1="146.096" x2="191.588" y2="146.096" id="a" gradientUnits="userSpaceOnUse"><stop stop-color="#4CAA47"/><stop offset="1" stop-color="#189343"/></linearGradient><linearGradient x1=".546" y1="196.962" x2="8.052" y2="196.962" id="b" gradientUnits="userSpaceOnUse"><stop stop-color="#9DD2B7"/><stop offset="1" stop-color="#C9E6D9"/></linearGradient><linearGradient x1=".546" y1="55.714" x2="191.588" y2="55.714" id="c" gradientUnits="userSpaceOnUse"><stop stop-color="#92CEAF"/><stop offset="1" stop-color="#C9E6D8"/></linearGradient><linearGradient x1="-5481.209" y1="790.188" x2="-5615.424" y2="868.08" id="d" gradientUnits="userSpaceOnUse"><stop stop-color="#1DAB5D"/><stop offset="1" stop-color="#62BD8E"/></linearGradient><linearGradient x1="166.368" y1="38.671" x2="30.837" y2="117.327" id="e" gradientUnits="userSpaceOnUse"><stop stop-color="#1DAB5D"/><stop offset="1" stop-color="#62BD8E"/></linearGradient><linearGradient x1="-5511.094" y1="898.801" x2="-5478.773" y2="898.801" id="f" gradientUnits="userSpaceOnUse"><stop stop-color="#41A3DA"/><stop offset="1" stop-color="#7DC7AC"/></linearGradient><linearGradient x1="-5612.733" y1="910.081" x2="-5483.337" y2="910.081" id="g" gradientUnits="userSpaceOnUse"><stop stop-color="#19973C"/><stop offset="1" stop-color="#1DA5B6"/></linearGradient><linearGradient x1="-5586.505" y1="938.569" x2="-5554.185" y2="938.569" id="h" gradientUnits="userSpaceOnUse"><stop stop-color="#5DBB8A"/><stop offset=".32" stop-color="#49AC6C"/><stop offset=".76" stop-color="#309948"/><stop offset="1" stop-color="#27923A"/></linearGradient><linearGradient x1="-5426.776" y1="906.942" x2="-5556.172" y2="906.942" id="i" gradientUnits="userSpaceOnUse"><stop offset=".02" stop-color="#64BD8F"/><stop offset=".3" stop-color="#55B984"/><stop offset=".84" stop-color="#2EAF68"/><stop offset="1" stop-color="#21AC5E"/></linearGradient><linearGradient x1="-5556.874" y1="906.942" x2="-5426.076" y2="906.942" id="j" gradientUnits="userSpaceOnUse"><stop stop-color="#23AD60"/><stop offset="1" stop-color="#81C8A6"/></linearGradient><linearGradient x1="-5611.782" y1="1109.823" x2="-5307.602" y2="1109.823" id="k" gradientUnits="userSpaceOnUse"><stop stop-color="#85C9A5"/><stop offset="1" stop-color="#CCE7DB"/></linearGradient><linearGradient x1="-5584.181" y1="1057.877" x2="-5336.296" y2="1057.877" id="l" gradientUnits="userSpaceOnUse"><stop stop-color="#23AD60"/><stop offset="1" stop-color="#81C8A6"/></linearGradient><linearGradient x1="-5500.927" y1="1047.144" x2="-5384.358" y2="1047.144" id="m" gradientUnits="userSpaceOnUse"><stop stop-color="#64BD8F"/><stop offset="1" stop-color="#26AE61"/></linearGradient><linearGradient x1="109.315" y1="334.53" x2="198.226" y2="334.53" id="n" gradientUnits="userSpaceOnUse"><stop stop-color="#60BC8B"/><stop offset="1" stop-color="#C8E5D7"/></linearGradient></defs><path d="M191.58 181.47 8.05 287.49V110.72L191.58 4.7v176.77z" fill="url(#a)"/><path d="m.53 283.02 7.52 4.64V110.89l-7.52-4.64v176.77z" fill="url(#b)"/><path d="m184.06.53 7.52 4.17L8.05 110.89l-7.52-4.64L184.06.53z" fill="url(#c)"/><path d="M184.09 17.68v159.45L15.54 274.52V115.05l168.55-97.37zm7.49-12.99L8.06 110.72v176.77l183.52-106.03V4.69z" fill="#F5F6FB"/><path d="M31.49 115.73c16.81-8.2 16.81 20.2 33.61 12.01 16.8-8.2 16.8-36.59 33.61-44.85 16.8-8.25 16.8 20.2 33.54 12.01 16.73-8.18 16.8-36.58 33.61-44.84v47.08l-134.2 65.53-.17-46.94z" fill="url(#d)"/><path d="M59.33 129.87c2.12-.07 4.13-.59 6.01-1.57 8.58-4.21 12.9-13.6 17.05-22.68 4.16-9.08 8.31-18.1 16.5-22.11 7.86-3.84 11.76.87 15.9 5.84 4.13 4.98 8.73 10.53 17.64 6.18 8.6-4.2 12.9-13.59 17.06-22.68 4.16-9.1 8.3-18.11 16.49-22.1.4-.15.48-.4.24-.76-.24-.32-.54-.39-.89-.21-8.6 4.21-12.9 13.58-17.08 22.67-4.17 9.1-8.3 18.11-16.48 22.1-7.87 3.84-11.76-.87-15.91-5.84-4.14-4.98-8.72-10.51-17.64-6.17-8.59 4.21-12.9 13.6-17.06 22.68-4.16 9.08-8.3 18.1-16.49 22.11-7.86 3.84-11.77-.87-15.9-5.84-4.13-4.98-8.74-10.53-17.64-6.17-.41.14-.5.4-.26.76.25.31.55.38.91.21 7.86-3.84 11.77.85 15.9 5.84 3.11 3.6 6.47 7.65 11.65 7.74z" fill="url(#e)"/><path d="M151.98 177.03c8.91-5.16 16.16-17.67 16.16-27.9 0-10.23-7.25-14.36-16.16-9.2-1.74 1.09-2.67 2.67-2.8 4.72 0 1.74 1.23 2.44 2.8 1.57 5.88-3.41 10.67-.67 10.67 6.09 0 6.77-4.79 15.02-10.67 18.43s-10.68.67-10.68-6.1c0-1.73-1.22-2.43-2.81-1.55-1.74 1.09-2.67 2.67-2.8 4.72.13 10.23 7.38 14.36 16.29 9.22z" fill="url(#f)"/><path d="m105.99 175.55 23.49-13.57v-5.51l-23.49 13.57v5.51zm0 10.62 23.49-13.58v-5.49l-23.49 13.56v5.51zm0 10.61 23.49-13.57v-5.51l-23.49 13.57v5.51z" fill="#CED1E9"/><path d="M42.18 157.13a17.42 17.42 0 0 0-5.66 5.98 17.478 17.478 0 0 0-2.34 7.9l.21 72.16c0 5.09 3.61 7.15 8.05 4.58l113.13-65.37c2.36-1.53 4.25-3.52 5.67-5.97 1.41-2.44 2.19-5.08 2.34-7.9l-.21-72.15c0-5.1-3.63-7.16-8.07-4.6L42.18 157.13z" fill="url(#g)" opacity=".6" style="mix-blend-mode:multiply"/><path d="M76.57 216.74c8.92-5.14 16.16-17.65 16.16-27.88s-7.24-14.38-16.16-9.22c-3.59 2.18-6.6 4.98-9.03 8.41-1.25 1.69-1.59 3.84-.75 4.79.84.95 2.57.33 3.81-1.4a20.22 20.22 0 0 1 5.97-5.61c5.89-3.4 10.68-.67 10.68 6.1s-4.79 15.02-10.68 18.42c-5.9 3.41-10.67.68-10.67-6.09 0-1.74-1.23-2.44-2.8-1.56-1.71 1.11-2.62 2.69-2.73 4.73.05 10.38 7.36 14.53 16.2 9.31z" fill="url(#h)"/><path d="m33.6 212.29 23.49-13.58v-5.51L33.6 206.77v5.52zm0 10.61 23.49-13.57v-5.51L33.6 217.39v5.51zm0 10.6 23.49-13.56v-5.51L33.6 228v5.5z" fill="#8DCA94"/><path d="M98.75 153.99a17.361 17.361 0 0 0-5.67 5.98 17.441 17.441 0 0 0-2.34 7.9l.21 72.16c0 5.09 3.63 7.15 8.07 4.58l113.12-65.36a17.42 17.42 0 0 0 5.66-5.98c1.41-2.45 2.19-5.08 2.34-7.9l-.21-72.15c0-5.1-3.62-7.16-8.05-4.59L98.75 153.99z" fill="url(#i)"/><path d="M93.08 159.97a17.441 17.441 0 0 0-2.34 7.9l.21 72.16c0 5.09 3.63 7.15 8.07 4.58l113.12-65.36a17.42 17.42 0 0 0 5.66-5.98c1.41-2.45 2.19-5.08 2.34-7.9l-.21-72.15c0-5.1-3.62-7.16-8.05-4.59L98.75 153.99a17.361 17.361 0 0 0-5.67 5.98z" stroke="url(#j)"/><g opacity=".9" fill="#FFF"><path d="M116.58 172.69c-1.32 0-2.23-1.04-2.23-2.8 0 1.76.91 2.8 2.23 2.8z"/><path d="M122.35 165.22c-.02.88-.19 1.74-.52 2.56l10.64 7.26a7.08 7.08 0 0 1 1.64-1.4c.84-.58 1.74-.7 2.7-.35l9.09-11.21c-.06-.28-.08-.56-.08-.84.15-2.99 1.48-5.29 3.99-6.92 2.21-1.28 4.01-.26 4.02 2.3-.02.82-.17 1.62-.46 2.39l10.47 6.34c.51-.59 1.09-1.08 1.75-1.48.84-.59 1.73-.71 2.69-.35l9.09-11.21c-.05-.28-.07-.56-.07-.84.15-2.99 1.48-5.29 3.99-6.92 2.2-1.27 4.01-.25 4.01 2.28-.01.81-.16 1.6-.44 2.36l10.42 6.04c.51-.61 1.1-1.12 1.78-1.53 2.21-1.28 4.02-.24 4.02 2.3-.15 2.86-1.4 5.11-3.74 6.75v4.73l-.5.28v-4.71c-2.09 1.06-3.76 0-3.77-2.43.01-.8.15-1.58.43-2.34l-10.4-6.04c-.45.55-.96 1.01-1.54 1.4l.1 22.96-.51.29-.08-22.95c-.79.47-1.6.54-2.45.21l-9.09 11.21c.04.28.07.57.07.85-.15 2.86-1.4 5.11-3.74 6.76l.07 12.76-.51.3v-12.77c-2.1 1.05-3.76 0-3.76-2.42.01-.83.16-1.63.45-2.4l-10.48-6.35c-.43.51-.93.95-1.48 1.32l.11 31.42-.51.28-.11-31.4c-.78.46-1.6.53-2.45.21l-9.09 11.21c.06.28.09.56.09.85-.17 2.85-1.41 5.1-3.74 6.75l.08 21.23-.5.3-.09-21.23c-2.08 1.05-3.75 0-3.76-2.43 0-.88.18-1.74.52-2.56l-10.66-7.26c-.42.46-.89.86-1.4 1.19l.14 41.09-.51.28-.14-41.07c-2.08 1.05-3.75 0-3.76-2.44.15-2.98 1.48-5.29 3.99-6.91 2.2-1.26 3.99-.24 3.99 2.3zm11.78 15.03c1.06-.68 1.63-1.66 1.69-2.92 0-1.08-.77-1.52-1.69-.98-1.07.68-1.64 1.67-1.71 2.94 0 1.08.77 1.51 1.71.96zm-15.79-10.76c1.07-.69 1.63-1.67 1.7-2.94 0-1.08-.76-1.51-1.71-.97-1.06.7-1.62 1.68-1.7 2.95 0 1.07.77 1.51 1.71.96zm31.48-8.5c1.06-.69 1.63-1.67 1.7-2.93 0-1.09-.76-1.53-1.7-.98-1.06.69-1.63 1.67-1.7 2.94 0 1.08.77 1.51 1.7.97zm15.79 9.55c1.06-.68 1.63-1.66 1.69-2.93 0-1.07-.77-1.52-1.71-.98-1.06.7-1.62 1.68-1.69 2.95 0 1.08.77 1.51 1.71.96zm31.48-10.11c1.06-.69 1.63-1.67 1.69-2.93 0-1.08-.77-1.52-1.71-.98-1.06.69-1.63 1.67-1.69 2.94 0 1.08.77 1.51 1.71.97zm.75-4.14zm-4.32 2.16zm3.55-4.58z"/><path d="M120.14 162.39c1.31 0 2.21 1.03 2.22 2.8-.01-1.69-.91-2.8-2.22-2.8z"/></g><path d="M339.31 318.84v1.74c0 .17 0 .38-.1.58-.09.19 0 .33-.09.5-.1.17-.09.37-.14.55-.06.18-.09.33-.14.5-.06.17-.12.37-.19.55-.07.18-.12.32-.18.49l-.24.57-.22.48-.29.57-.26.45-.42.69-.25.39-.56.76c-.08.1-.14.2-.21.29-.31.38-.64.76-.98 1.14l-.29.31c-.27.28-.55.56-.84.82l-.41.38c-.17.17-.35.32-.53.48l-.52.43-.59.45-.56.42-.63.45c-.19.14-.39.28-.6.41l-.67.43-.87.53-114.03 66.31c-.82.46-1.67.91-2.54 1.4l-.69.32c-.79.37-1.61.72-2.45 1.04l-.26.11c-1.05.41-2.15.76-3.24 1.1l-1.13.3c-.59.16-1.16.34-1.75.48-.59.14-1.4.3-2.07.44l-1.56.32-.9.14c-.71.14-1.4.22-2.17.31l-.95.11c-1.01.11-2.04.19-3.07.25h-6.44l-1.94-.11-1.74-.14-1.89-.21-1.69-.24-2.01-.35-2.04-.41-.51-.12c-.96-.23-1.91-.48-2.8-.76l-.78-.24c-.77-.25-1.54-.5-2.28-.78l-.68-.24c-.68-.27-1.4-.56-1.98-.86-.33-.14-.66-.26-.98-.42-.94-.44-1.87-.92-2.81-1.4L46.32 334.24c-7.41-4.28-11.1-9.93-11.09-15.56v13.56c0 5.61 3.68 11.3 11.09 15.57l114.83 66.31c.89.52 1.81.98 2.81 1.4l.98.43 1.66.73.32.11.68.26c.75.26 1.51.53 2.28.77l.78.23.51.17 2.34.61.5.11 1.09.24c.31 0 .63.11.95.16.68.13 1.41.26 2.02.35l.77.14c.38 0 .76 0 1.12.13.5.08 1.01.14 1.51.17l1.07.11h.88c.57 0 1.14.08 1.71.1.57.01.76 0 1.15 0h5.49l2.6-.21h.48l.95-.11c.71-.07 1.4-.17 2.16-.3l.91-.15h.33l1.22-.25c.69-.14 1.4-.28 2.06-.45.66-.17.99-.27 1.5-.4.5-.12 1.29-.35 1.92-.56.15-.03.3-.07.45-.12.75-.24 1.51-.51 2.25-.79l.27-.11c.84-.32 1.65-.69 2.45-1.05l.68-.32c.87-.42 1.73-.86 2.54-1.4l114.03-66.31.46-.27.41-.26.67-.42.61-.42c.22-.14.43-.3.63-.44l.56-.42.58-.46.52-.44.53-.46.21-.18.2-.2c.3-.28.58-.56.84-.84l.29-.31c.35-.36.68-.75.98-1.13.07-.07.12-.15.19-.24.07-.08.37-.5.56-.77l.25-.39c.14-.23.29-.45.42-.67.12-.23.07-.12.1-.19.02-.07.09-.18.15-.28l.29-.57c.09-.16.16-.32.23-.48.08-.18.17-.38.24-.57.07-.2.07-.16.09-.24.04-.08.07-.17.09-.25 0-.19.12-.37.18-.55.06-.18.1-.34.15-.49l.13-.56c.01-.1.01-.2 0-.29v-.22l.08-.56v-.5c.02-.19.02-.38 0-.57.01-.11.01-.22 0-.33v-.33l.1-13.67z" fill="url(#k)"/><path d="m328.21 303.26-114.84-66.3c-14.7-8.51-38.7-8.51-53.32 0l-114.04 66.3c-14.62 8.49-14.53 22.42.18 30.91l114.84 66.31c14.72 8.49 38.7 8.49 53.32 0l114.04-66.31c14.63-8.5 14.55-22.42-.18-30.91z" fill="#F3F7FC"/><path d="m299.64 305.17-91.97-53.14c-11.79-6.81-31.01-6.81-42.72 0l-91.36 53.14c-11.73 6.81-11.66 17.95.14 24.76l91.95 53.14c11.79 6.81 31.02 6.81 42.72 0l91.36-53.14c11.73-6.81 11.64-17.95-.12-24.76z"/><path d="M207.67 252.03c-11.79-6.81-31.01-6.81-42.72 0l-91.36 53.14c-11.73 6.81-11.66 17.95.14 24.76l91.95 53.14c11.79 6.81 31.02 6.81 42.72 0l91.36-53.14c11.73-6.81 11.64-17.95-.12-24.76l-91.97-53.14z" stroke="url(#l)" stroke-width="3"/><path d="m197.09 312.61-11.21-6.47-11.11 6.47 11.2 6.47 11.12-6.47z" fill="#F3F7FC"/><path d="m145.99 301.78 47.61-27.76 10.08 5.83-47.61 27.76-10.08-5.83zm23.26 13.83 43.84-25-10.08-5.83-43.85 25.01 10.09 5.82zm13.18 8.01 40.33-23.3-10.09-5.82-40.33 23.29 10.09 5.83zm13.17 8 31.19-18.21-10.08-5.83-31.19 18.21 10.08 5.83zm13.18 8.01 53.78-30.96-10.09-5.81-53.77 30.95 10.08 5.82z" fill="url(#m)"/><path d="m196.85 357.49-1.79-1.48-22-19.21-29.13 1.49 5.28-24.1-33 5.37-6.9-3.99 1.08-1.87 6.24 3.6 35.36-5.76-5.35 24.46 27.17-1.42 24.41 21.24-1.37 1.67z" fill="url(#n)"/><path d="m409.41 192.16-7.87 3.2c-.53.22-1.06.22-1.58-.01-.53-.23-.9-.61-1.1-1.15l-.49-1.27c-.21-.53-.2-1.06.03-1.58s.61-.88 1.14-1.09l8.25-3.17c.63-.24 1.23-.19 1.81.17.57.36.9.88.96 1.55l.13 1.2c.09 1.02-.33 1.76-1.28 2.15z" fill="#32AE42" fill-rule="evenodd"/><path d="M413.8 326.74h-5.39v4.86h5.39v-4.86zm-24.06.8h5.2v4.87h-5.2v-4.87z" fill="#FAD7CC" fill-rule="evenodd"/><path d="M392.1 331.06h1.45c1.07-.04 1.69.47 1.85 1.53.25 2.27-.23 5.2-3.36 5.55-3.7.39-8.14 1.34-10.27.22-.25-.13-.43-.33-.52-.6-.33-1.04 0-2.67 3.7-3.23 1.03-.12 1.99-.43 2.89-.93 1.27-.75 2.8-2.54 4.26-2.54z" fill="#49619F" fill-rule="evenodd"/><path d="M383.58 226.76c-1.48 2.02-5.56 4.72-9.97-.67-5.54-6.75-19.71-20.91-16.06-23.88.36-.09.85-.6 0-1.89-1.08-1.62-1.75-6.08.68-3.37 1.27 1.75 4.84 4.79 5.39 6.29.67 1.89 9.99 17.32 14.97 15.56 4-1.41 4.99 4.73 4.99 7.96z" fill="#EEADAD" fill-rule="evenodd"/><path d="M408.94 185.62v2.71l-9.84 3.09-1.9-3.82c-2.41-.14-6.6-2.84-2.9-7.29.47-.13.79-.41.96-.87.17-.45.13-.88-.14-1.29-.82-1.62-2.7.14-.82-2.55 1.88-2.69 3.51-1.27 5.27-4.85 3.69 1.65 9.95 5.72 5.53 8.63-4.41 2.9 1.53 5.25 3.84 6.24z" fill="#F7C3C0" fill-rule="evenodd"/><path d="M414.86 327.48h-7.42c.52-5.71-.11-11.28-1.89-16.73-2.97-9.18-1.89-45.19 0-51.4 1.51-4.97 3.6-12.51 4.45-15.65 2.07 0 6.21-.64 6.21-2.69.4 5.92.7 19.04-1.35 24-2.55 6.21-.93 21.87 0 35.09v27.38z" fill="#3C5D9A" fill-rule="evenodd"/><path d="M397.72 328.09h-9.57c-1.76 0-.27-88.09 4.04-87.02 5.9 2.14 11.97 2.96 18.22 2.43.74 2.92.8 5.86.16 8.8a18.85 18.85 0 0 1-3.8 7.93c-5.19 6.69-8.19 48.03-9.05 67.86z" fill="#49619F" fill-rule="evenodd"/><path d="M410.66 189.36c5.92 2.26 15.84 10.95 8.18 27.7-1.51 6.62-4.07 20.94-2.26 25.26-4.32 1.99-15.38 4.75-25.08 0v-17.43s0-1.76-1.69 0-3.81 6.38-10.7.82c-6.88-5.56 12.39-33.92 21.27-32.7 7.1.98 9.81-2.03 10.28-3.65z" fill="#4FB45A" fill-rule="evenodd"/><path d="M407.93 165.44c-.73-.81-1.73-2.78 0-4.18 2.16-1.76-8.5-2.7-9.72 4.18-.97 5.51 3.46 8.23 5.8 8.93.94.4 2.69 1.67 2.16 3.5-.53 1.84-3.28 1.85-4.59 1.62-1.03-.13-2.55.49-.68 4.06 1.87 3.57 6.12 3.45 9.32 1.48 4.5-3.15 7.31-13.2.94-17.41l-3.23-2.18z" fill="#284F84" fill-rule="evenodd"/><path d="M419.45 335.28c2.07.13 3.7.44 2.38 2.34-.1.13-.21.24-.34.33-1.77 1.2-6.71 1.59-10.18 0a1.95 1.95 0 0 1-.64-.5c-1.64-1.86-5.59-6.3.27-6.37 3.73.25 4 1.13 7.44 3.82.33.26.65.36 1.07.38z" fill="#49619F" fill-rule="evenodd"/></svg>