<svg width="64.000000pt" height="64.000000pt" viewBox="0 0 64.000000 64.000000" xmlns="http://www.w3.org/2000/svg">
  <g transform="translate(0.000000,64.000000) scale(0.100000,-0.100000)" fill="#fefefe" stroke="none">
    <path d="M0 320 l0 -320 320 0 320 0 0 320 0 320 -320 0 -320 0 0 -320z m205
184 c-11 -9 -27 -21 -35 -27 -9 -7 -26 -25 -38 -41 l-22 -29 0 -55 0 -55 34
-31 c39 -37 94 -56 162 -56 l49 0 42 19 c64 30 82 82 42 122 l-22 22 -74 -7
-75 -6 -29 29 -29 29 9 24 c4 13 26 33 47 45 l39 23 47 0 47 0 56 -21 56 -21
34 -33 c18 -19 38 -49 45 -69 l11 -35 -11 -43 -12 -43 -48 -46 -47 -47 -54
-17 c-108 -36 -230 -16 -308 51 -45 39 -81 100 -81 136 1 35 34 100 66 129 25
23 100 68 114 68 3 0 -4 -7 -15 -15z" />
  </g>
  <g transform="translate(0.000000,64.000000) scale(0.100000,-0.100000)" fill="#2470f0" stroke="none">
    <path d="M267 498 c-42 -21 -63 -55 -54 -90 10 -38 95 -75 111 -49 5 7 50 8
98 2 4 -1 15 -12 23 -25 l16 -25 -11 -23 c-17 -32 -51 -58 -77 -58 -13 0 -23
-4 -23 -10 l0 -10 -44 0 c-25 0 -48 5 -51 10 -3 6 -15 10 -26 10 -29 0 -87 41
-98 70 -12 29 -14 44 -12 82 l1 27 30 34 c17 19 30 40 30 46 0 40 -99 -37
-130 -101 l-18 -38 5 -42 6 -43 26 -35 c27 -36 71 -79 82 -80 4 0 24 -7 45
-16 l39 -17 88 -1 c48 -1 87 2 87 7 0 4 8 7 18 7 27 0 117 56 135 84 9 14 23
44 32 68 l14 43 -11 35 c-7 19 -23 50 -36 69 l-25 33 -46 22 c-25 11 -50 21
-56 22 -5 1 -12 3 -15 4 -3 1 -30 3 -60 4 l-55 2 -38 -18z" />
  </g>
  <g transform="translate(0.000000,64.000000) scale(0.100000,-0.100000)" fill="#2573f7" stroke="none">
    <path d="M159 505 c-25 -13 -60 -40 -77 -59 -30 -34 -52 -90 -52 -131 1 -38
37 -101 81 -138 l43 -37 50 -15 c64 -19 169 -19 233 0 l50 15 45 40 c48 41 73
86 65 117 l-4 18 -7 -20 c-4 -11 -15 -35 -24 -54 l-17 -35 -45 -28 c-25 -16
-57 -32 -72 -35 -16 -3 -28 -8 -28 -12 0 -3 -35 -5 -78 -4 l-77 1 -45 18 c-25
10 -46 17 -47 16 -6 -5 -103 105 -98 110 2 2 0 19 -4 38 l-7 35 14 30 c17 35
69 92 97 107 l20 11 -26 -29 c-35 -38 -52 -72 -43 -85 l7 -12 13 29 c17 38 31
54 77 88 20 16 37 32 37 37 0 16 -33 9 -81 -16z" />
    <path d="M277 506 c-49 -18 -67 -34 -67 -60 l0 -21 23 27 c12 15 36 33 52 39
33 12 101 15 127 4 9 -4 22 -4 28 0 5 3 10 2 10 -2 0 -8 41 -27 63 -31 14 -1
66 -76 67 -94 0 -9 5 -20 10 -23 l10 -6 0 23 c0 13 -11 40 -25 60 l-25 36 -53
26 -53 26 -64 5 -65 5 -38 -14z" />
    <path d="M210 409 c0 -23 32 -48 65 -51 53 -3 95 2 95 12 0 13 -47 13 -54 1
-4 -5 -12 -8 -19 -7 -20 3 -61 28 -74 45 l-12 16 -1 -16z" />
    <path d="M380 371 c0 -5 11 -12 25 -15 13 -3 30 -16 36 -27 l11 -22 -11 -23
c-5 -13 -28 -32 -50 -44 l-40 -20 -51 0 -50 0 -45 21 c-48 22 -85 61 -85 87
l0 16 -13 -13 -12 -13 13 -5 c6 -3 10 -8 7 -13 -5 -9 51 -67 60 -62 3 1 13 -4
22 -13 8 -9 22 -14 29 -11 7 3 16 1 19 -4 4 -6 31 -10 61 -10 l54 0 0 11 c0 5
5 7 10 4 16 -10 75 31 88 60 17 38 15 53 -13 80 -23 24 -65 34 -65 16z" />
  </g>
  <g transform="translate(0.000000,64.000000) scale(0.100000,-0.100000)" fill="#2a74f0" stroke="none">
    <path d="M164 504 l-19 -15 24 7 24 6 -7 -11 c-4 -6 -3 -11 3 -11 5 0 13 5 16
10 3 6 1 10 -5 10 -6 0 -8 5 -5 10 9 15 -9 12 -31 -6z" />
    <path d="M290 510 c0 -5 4 -10 9 -10 6 0 13 5 16 10 l6 10 -15 0 c-9 0 -16 -4
-16 -10z" />
    <path d="M395 510 c3 -5 10 -10 16 -10 5 0 9 5 9 10 0 6 -7 10 -16 10 l-15 0
6 -10z" />
    <path d="M474 485 c11 -8 25 -15 30 -15 6 0 2 7 -8 15 -11 8 -25 15 -30 15 -6
0 -2 -7 8 -15z" />
    <path d="M70 428 c-16 -22 -30 -46 -29 -52 0 -6 6 -2 12 8 7 11 25 34 41 53
15 18 23 33 17 33 -6 0 -24 -19 -41 -42z" />
    <path d="M205 437 c-4 -10 -5 -21 -1 -24 10 -10 18 4 13 24 l-4 18 -8 -18z" />
    <path d="M120 420 c-6 -12 -9 -24 -7 -27 3 -2 11 5 17 17 6 12 9 24 7 27 -3 2
-11 -5 -17 -17z" />
    <path d="M260 360 c0 -5 7 -10 16 -10 l15 0 -6 10 c-3 6 -10 10 -16 10 -5 0
-9 -4 -9 -10z" />
    <path d="M100 351 c0 -6 5 -13 10 -16 l10 -6 0 15 c0 9 -4 16 -10 16 -5 0 -10
-4 -10 -9z" />
    <path d="M592 330 c1 -16 5 -30 10 -30 4 0 8 14 8 30 0 17 -4 30 -9 30 -5 0
-9 -13 -9 -30z" />
    <path d="M30 296 c0 -9 5 -16 10 -16 6 0 10 4 10 9 0 6 -4 13 -10 16 l-10 6 0
-15z" />
    <path d="M130 282 c0 -12 19 -26 26 -19 2 2 -2 10 -11 17 l-15 12 0 -10z" />
    <path d="M425 260 c-10 -11 -13 -20 -8 -20 13 0 38 29 31 35 -3 3 -13 -4 -23
-15z" />
    <path d="M566 234 c-10 -14 -16 -28 -13 -30 2 -3 12 7 21 22 10 14 16 28 13
30 -2 3 -12 -7 -21 -22z" />
    <path d="M70 221 c0 -5 5 -13 10 -16 6 -3 10 -2 10 4 0 5 -4 13 -10 16 -5 3
-10 2 -10 -4z" />
    <path d="M105 180 c3 -5 11 -10 16 -10 6 0 7 5 4 10 -3 6 -11 10 -16 10 -6 0
-7 -4 -4 -10z" />
    <path d="M515 180 c-3 -5 -2 -10 4 -10 5 0 13 5 16 10 3 6 2 10 -4 10 -5 0
-13 -4 -16 -10z" />
    <path d="M195 130 c3 -5 11 -10 16 -10 6 0 7 5 4 10 -3 6 -11 10 -16 10 -6 0
-7 -4 -4 -10z" />
    <path d="M425 130 c-3 -5 -2 -10 4 -10 5 0 13 5 16 10 3 6 2 10 -4 10 -5 0
-13 -4 -16 -10z" />
  </g>
</svg>
