<svg class="icon" width="30" height="30" viewBox="0 0 1024 1024" xmlns="http://www.w3.org/2000/svg"><path d="M717.62 682.138h116.582l-212.02 296.396-5.12-1.792 46.08-194.816h-91.136c10.24-47.257 20.07-91.648 30.72-140.185-25.907 7.782-48.537 12.288-69.17 21.299-44.698 19.456-84.89 11.162-121.14-17.613a455.68 455.68 0 0 1-66.97-63.232c-20.48-24.473-13.977-38.451 17.05-43.673 65.69-11.06 131.584-20.788 197.58-33.076h-41.42c-56.78-.563-113.613-1.484-170.394-1.69-34.867 0-59.443-18.175-80.486-43.468a272.589 272.589 0 0 1-54.989-110.848c-6.451-26.01.666-33.178 27.495-26.931 67.84 15.77 135.577 32.102 203.417 47.974a1030.195 1030.195 0 0 0 105.165 20.173c-40.96-13.62-82.74-26.112-123.34-40.96-61.953-22.938-122.88-47.923-184.833-71.68a66.56 66.56 0 0 1-38.963-37.376c-24.115-54.989-42.138-111.565-42.547-172.288 0-22.118 7.219-27.546 26.214-18.33C378.88 143.36 578.918 222.31 779.571 299.315a288.666 288.666 0 0 1 54.989 29.747c33.331 22.17 44.186 50.125 26.931 85.248-35.43 72.09-74.393 142.439-112.23 213.35-9.472 17.46-20.02 34.407-31.642 54.478z" fill="#59ADF8"/></svg>