<?xml version="1.0" encoding="UTF-8"?>
<svg id="_图层_1" data-name="图层_1" xmlns="http://www.w3.org/2000/svg" version="1.1" viewBox="0 0 60 40">
  <!-- Generator: Adobe Illustrator 29.0.1, SVG Export Plug-In . SVG Version: 2.1.0 Build 192)  -->
  <defs>
    <style>
      .st0 {
        fill: #f1f1f7;
      }

      .st1 {
        fill: #e6e6e6;
      }

      .st2 {
        fill: #dbdbdb;
      }

      .st3 {
        fill: #959fbc;
      }

      .st4 {
        fill: #e4e5e8;
      }

      .st5 {
        fill: #f2f2f2;
      }
    </style>
  </defs>
  <g>
    <path class="st2" d="M7.5,5.1h2.5v-.6h-3.1v3.1h.6v-2.5ZM7.5,35.2h2.5v.6h-3.1v-3.1h.6v2.5ZM52,5.1h-2.5v-.6h3.1v3.1h-.6v-2.5ZM52,35.2h-2.5v.6h3.1v-3.1h-.6v2.5Z"/>
    <path class="st5" d="M50.1,31.9c0,.7-.6,1.3-1.3,1.3H10.8c-.7,0-1.3-.6-1.3-1.3V8.4c0-.7.6-1.3,1.3-1.3h38c.7,0,1.3.6,1.3,1.3h0v23.5Z"/>
  </g>
  <g>
    <path class="st1" d="M23,22.5h21.6v2.5h-21.6v-2.5ZM23,27.2h21.6v2.5h-21.6v-2.5ZM25.4,11v.5h1v1.4h-.3v-.2h-.7v1h-.3v-1h-.7v.2h-.3v-1.4h1v-.5s.3,0,.3,0ZM25.1,12.4v-.7h-.7v.7h.7ZM26.1,12.4v-.7h-.7v.7h.7ZM26.9,12v-.3c.3-.2.5-.5.7-.8h.2c0,.3-.2.4-.3.6v.9h-.3v-.7c-.1,0-.2.2-.3.2ZM28,12.7v-.3h.3v.3h1.1v.3h-1.1v.7h-.3v-.7h-1.1v-.3h1.1ZM28.4,12.4c-.2,0-.3,0-.3-.3v-.2c-.1,0-.2,0-.4.1l-.2-.2c.2,0,.4-.1.5-.2v-.6h.3v.5c.3-.1.5-.3.7-.4l.2.2c-.2.2-.5.4-.8.5v.2s0,0,0,0h.4c0,0,.1,0,.1,0s0-.1,0-.3h.3c0,.4,0,.5-.1.5s-.2,0-.3,0c0,0-.5,0-.5,0ZM31.1,11.6c.2.8.6,1.3,1.2,1.8l-.2.2c-.6-.4-.9-.9-1.1-1.5-.2.6-.6,1.1-1.2,1.5l-.2-.2c.8-.5,1.2-1.1,1.2-1.9v-.4h.3c0,.2,0,.4,0,.6ZM33.1,13.2c.2,0,.5-.1.7-.2v.3c-.2,0-.5.2-1,.3v-.3s0,0,0-.1v-2.1h2.1v.9h-.8c0,.1,0,.2,0,.4h.9v.3h-.8s0,.1,0,.2c0,.2.2.4.3.4s.2.1.3.1,0,0,0,0,0-.2,0-.4h.2c0,.4,0,.5-.1.6s-.1.1-.2.1c-.1,0-.3,0-.4-.2s-.3-.3-.4-.6c0,0,0-.2,0-.3h-.9v.7ZM33.1,11.3v.4h1.5v-.4h-1.5ZM33.1,12v.4h.8c0-.1,0-.2,0-.4,0,0-.8,0-.8,0ZM36.5,12.9c-.2.3-.5.5-.9.7l-.2-.2c.4-.2.6-.4.9-.6l.2.2ZM36,11.5v-.6h.3v.6h.7v-.6h.3v.6h.5v.3h-.5v.6h.6v.3h-2.6v-.3h.6v-.6h-.5v-.3s.5,0,.5,0ZM37.1,12.4v-.6h-.7v.6h.7ZM38,13.4l-.2.2c-.2-.2-.5-.4-.8-.7l.2-.2c.3.2.6.4.8.7ZM38.8,11.7v-.4c-.1,0-.3,0-.4,0v-.2c.4,0,.7-.1,1-.2v.2s-.2,0-.3.1v.4h.5v.3h-.5c.2.3.3.4.5.6l-.2.2c-.1-.2-.2-.3-.3-.4v1.2h-.3v-1.1c-.1.2-.3.5-.4.7v-.3c.1-.2.3-.5.4-.8h-.5v-.3s.4,0,.4,0ZM40.8,13.5h-.3v-.2h-.6v.2h-.3v-2.4h1.1s0,2.3,0,2.3ZM40.5,13v-1.6h-.6v1.6h.6ZM43.7,13.6h-.3c0-.1-1.8-.1-1.8-.1h0c0,.1-.3.1-.3.1v-2.5h2.4v2.5h0ZM43.4,13.2v-1.9h-1.8v1.9h1.8ZM43.1,11.6v.2h-.6v.4h.5v.2h-.5v.4h.3c0-.1-.1-.2-.2-.3h.2c0,0,.1.1.2.2h-.2c0,0,.3,0,.3,0v.2h-1.6v-.2h.7v-.4h-.5v-.2h.5v-.4h-.6v-.2h1.5ZM24.1,18l-.2-.2c.2-.4.3-.8.3-1.4v-1h2.2v.7h-.8v.3h.9v.3h-.9v.3h.7v1h-.3c0-.1-1.1-.1-1.1-.1h0c0,.1-.3.1-.3.1v-1h.7v-.3h-.8c0,.5-.1.9-.4,1.3ZM24.5,15.7v.3h1.6v-.3h-1.6ZM24.5,16.2v.3h.8v-.3h-.8ZM26,17.6v-.4h-1.1v.4h1.1ZM28.8,17.6c.2,0,.5-.1.7-.2v.3c-.2,0-.5.2-1,.3v-.3s0,0,0-.1v-2.1h2.1v.9h-.8c0,.1,0,.2,0,.4h.9v.3h-.8s0,.1,0,.2c0,.2.2.4.3.4s.2.1.3.1,0,0,0,0,0-.2,0-.4h.2c0,.4,0,.5-.1.6s-.1.1-.2.1c-.1,0-.3,0-.4-.2s-.3-.3-.4-.6c0,0,0-.2,0-.3h-.9s0,.7,0,.7ZM28.8,15.7v.4h1.5v-.4h-1.5ZM28.8,16.4v.3h.8c0-.1,0-.2,0-.4,0,0-.8,0-.8,0ZM33.9,15.4v.2c0,0,.7,0,.7,0v1.2c.1-.1.2-.3.3-.4h.2c-.1.4-.3.6-.5.8v.6c0,.2,0,.3-.3.3h-.3v-.3c0,0,.2,0,.2,0,0,0,0,0,0,0v-.3h-.1c-.4.3-.9.5-1.5.6v-.2c.6-.1,1.1-.3,1.5-.5h-1.6v-.3h.3v-1.3h.6c0,0,0-.2,0-.3,0,0,.3,0,.3,0ZM34.4,16v-.2h-1.1v.2s1.1,0,1.1,0ZM34.4,16.5v-.2h-1.1v.2s1.1,0,1.1,0ZM34.4,16.9v-.2h-1.1v.2s1.1,0,1.1,0ZM37.7,15.5c0,.2-.2.4-.3.6v1.9h-.3v-1.5l-.3.3v-.3c.2-.3.4-.7.6-1.1,0,0,.3,0,.3,0ZM37.8,16.7v-.3s0,0-.1.1l-.2-.2c.3-.3.5-.6.6-1h.3c-.1.5-.3.8-.5,1.1h1.3c0,.6,0,1,0,1.2,0,.2-.2.3-.4.3h-.3v-.3s.2,0,.3,0,.1,0,.2-.2c0,0,0-.4,0-.8h-.4c0,.3-.1.5-.2.7,0,.2-.3.4-.5.6l-.2-.2c.2-.1.3-.3.4-.4,0-.2.1-.4.2-.6,0,0-.3,0-.3,0ZM39.5,16.4l-.2.2c-.4-.3-.6-.6-.7-1.1h.2c.1.3.4.6.7.9ZM41.8,16.2v1.2c0,0,.2-.1.3-.2v.3c-.1.2-.3.3-.5.4v-.2s0,0,0-.1v-1h-.4v-.3s.7,0,.7,0ZM42,15.8l-.2.2c-.1-.1-.3-.3-.5-.4l.2-.2c.2.1.4.3.5.4Z"/>
    <path class="st1" d="M42.1,15.7v-.3h1.6v.3h-.6v.7h.5v.3h-.5v.9h.6v.3h-1.8v-.3h.3v-1.5h.3v1.5h.4v-1.9h-.8Z"/>
  </g>
  <path class="st3" d="M35.9,27h-12.2c-1.4,0-2.5-1.1-2.5-2.5h0v-6.8c0-1,.6-1.9,1.5-2.3,0,0,0,0,0-.1,0,0,.3-.8.5-.8h1.7c.1,0,.5.6.6.7h1s1-2,1.5-2h5.4c.5,0,1.2,2,1.2,2h1.4c1.4,0,2.5,1.1,2.5,2.5v6.8c0,1.4-1.1,2.5-2.5,2.5M23.8,17.7c.5,0,1-.4,1-1h0c0-.5-.4-1-1-1h0c-.5,0-1,.4-1,1,0,.5.4,1,1,1h0M30.5,16c-2.6,0-4.7,2.1-4.7,4.7s2.1,4.7,4.7,4.7,4.7-2.1,4.7-4.7-2.1-4.7-4.7-4.7M30.5,23.8c-1.8,0-3.2-1.4-3.2-3.2s1.4-3.2,3.2-3.2,3.2,1.4,3.2,3.2-1.4,3.2-3.2,3.2"/>
  <path class="st0" d="M14.6,15.5h6.2v1.5h-6.2v-1.5Z"/>
  <path class="st4" d="M16.7,15.7h2v.3h-2v-.3h0Z"/>
  <path class="st1" d="M17.7,19c1,0,1.9-.3,2.8-1v-1.3h-5.5v1.3c.8.7,1.8,1,2.8,1Z"/>
  <path class="st1" d="M13.9,14.6c0,2.1,1.7,3.7,3.7,3.7s3.7-1.7,3.7-3.7-1.7-3.7-3.7-3.7-3.7,1.6-3.7,3.7Z"/>
  <path class="st1" d="M14.8,14.6c0,1.6,1.3,2.8,2.8,2.8s2.8-1.3,2.8-2.8-1.3-2.8-2.8-2.8-2.8,1.3-2.8,2.8Z"/>
  <path class="st5" d="M16.9,15.4h1.5c.1,0,.2,0,.2.2h0c0,.1-2,.1-2,.1h0c0-.2.1-.3.2-.3ZM15.9,16h3.5c.3,0,.5,0,.5.2h0c0,.1-4.5.1-4.5.1h0c0-.2.2-.3.5-.3Z"/>
  <path class="st5" d="M17.7,13.3l-.4.2v-.4c0,0-.2-.3-.2-.3h.4c0,0,.2-.5.2-.5l.2.4h.4c0,0-.3.4-.3.4v.4c0,0-.3-.2-.3-.2ZM17.1,17.9c0,.4.3.7.7.7s.7-.3.7-.7-.3-.7-.7-.7-.7.3-.7.7ZM16.2,13.5h-.2c0,0,0-.1,0-.1l-.2-.2h.2s.1-.2.1-.2v.2c0,0,.3,0,.3,0l-.2.2v.2s-.1,0-.1,0ZM16.9,14.2h-.2c0,0,0-.1,0-.1l-.2-.2h.2s.1-.2.1-.2v.2c0,0,.3,0,.3,0v.2c-.1,0,0,.2,0,.2h-.2ZM18.5,14.2h-.2c0,0,0-.1,0-.1l-.2-.2h.2s.1-.2.1-.2v.2c0,0,.3,0,.3,0v.2c-.1,0,0,.2,0,.2h-.2ZM19.3,13.5h-.2c0,0,0-.1,0-.1l-.2-.2h.2s.1-.2.1-.2v.2c0,0,.3,0,.3,0v.2c-.1,0,0,.2,0,.2h-.2Z"/>
</svg>