<svg width="1440.855" height="900.46" viewBox="0 0 1440.85 900.46" fill="none" xmlns="http://www.w3.org/2000/svg"><defs><linearGradient x1="0" y1="653.04" x2="1120.19" y2="653.04" id="a" gradientUnits="userSpaceOnUse"><stop stop-color="#F0F0F2"/><stop offset="1" stop-color="#F3F4F6"/></linearGradient><linearGradient x1=".7" y1="58.87" x2="382.18" y2="58.87" id="b" gradientUnits="userSpaceOnUse"><stop stop-color="#EBEBED"/><stop offset="1" stop-color="#F3F4F6"/></linearGradient><linearGradient x1="1506.855" y1="665.73" x2="1152.355" y2="900.23" id="c" gradientUnits="userSpaceOnUse"><stop stop-color="#EBECEE"/><stop offset="1" stop-color="#F2F3F5"/></linearGradient><linearGradient x1="1206.355" y1="1.73" x2="1460.355" y2="314.73" id="d" gradientUnits="userSpaceOnUse"><stop offset=".282" stop-color="#F1F2F3"/><stop offset="1" stop-color="#EBECEE" stop-opacity=".792"/></linearGradient></defs><path fill="#F3F4F6" d="M.7.46h1440v900H.7z"/><path d="M3.09 755.27 0 724.46l442.31 174.26h-79.56L3.09 755.27z" fill="#E3E4E8"/><path d="M532.78 898.72h83.62l526.16-259.19-22.38-27.13-587.4 286.32z" fill="#FBFBFC"/><path d="m3.09 585.09 470.03-177.73 647.06 205.04-587.4 286.32h-90.47L0 724.46l3.09-139.37z" fill="url(#a)"/><path d="m.7 79.92 88.22 37.37L382.18.45H.7v79.47z" fill="url(#b)"/><path d="M1440.35 665.73v234.5h-288l288-234.5z" fill="url(#c)" fill-opacity=".9" fill-rule="evenodd"/><path d="M1206.35 1.72h234.5v288.01L1206.35 1.72z" fill="url(#d)" fill-rule="evenodd"/></svg>