<svg width="1440.855" height="900.46" viewBox="0 0 1440.85 900.46" fill="none" xmlns="http://www.w3.org/2000/svg"><defs><linearGradient x1="0" y1="724" x2="442.31" y2="898.26" id="a" gradientUnits="userSpaceOnUse"><stop stop-color="#121212"/><stop offset=".969" stop-color="#333" stop-opacity=".969"/><stop offset="1" stop-color="#E3E4E8" stop-opacity="0"/></linearGradient><linearGradient x1="995.427" y1="642.73" x2="466.927" y2="898.31" id="b" gradientUnits="userSpaceOnUse"><stop stop-color="#121212"/><stop offset="1" stop-color="#333"/></linearGradient><linearGradient x1="0" y1="653.04" x2="1120.19" y2="653.04" id="c" gradientUnits="userSpaceOnUse"><stop stop-color="#121212"/><stop offset="1" stop-color="#333"/></linearGradient><linearGradient x1=".7" y1="58.87" x2="382.18" y2="58.87" id="d" gradientUnits="userSpaceOnUse"><stop stop-color="#121212"/><stop offset="1" stop-color="#333"/></linearGradient><linearGradient x1="1440.355" y1="665.73" x2="1152.355" y2="900.23" id="e" gradientUnits="userSpaceOnUse"><stop stop-color="#333"/><stop offset="1" stop-color="#121212"/></linearGradient><linearGradient x1="1206.355" y1="1.73" x2="1460.355" y2="314.73" id="f" gradientUnits="userSpaceOnUse"><stop stop-color="#121212"/><stop offset=".995" stop-color="#333" stop-opacity=".792"/></linearGradient></defs><path fill="#121212" d="M.7.46h1440v900H.7z"/><path d="M3.09 755.27 0 724.46l442.31 174.26h-79.56L3.09 755.27z" fill="url(#a)"/><path d="M532.78 898.72h83.62l526.16-259.19-22.38-27.13-587.4 286.32z" fill="url(#b)"/><path d="m3.09 585.09 470.03-177.73 647.06 205.04-587.4 286.32h-90.47L0 724.46l3.09-139.37z" fill="url(#c)"/><path d="m.7 79.92 88.22 37.37L382.18.45H.7v79.47z" fill="url(#d)"/><path d="M1440.35 665.73v234.5h-288l288-234.5z" fill="url(#e)" fill-opacity=".9" fill-rule="evenodd"/><path d="M1206.35 1.72h234.5v288.01L1206.35 1.72z" fill="url(#f)" fill-rule="evenodd"/></svg>