<svg viewBox="0 0 1024 1024" xmlns="http://www.w3.org/2000/svg" width="200" height="200"><path d="M69.53 0h884.94v1024H69.53z" fill="none"/><path d="M79.56 259.856v503.572l435.095 250.732 434.041-250.732-1.054-502.519L514.655 10.177 79.56 259.856z" fill="#005EFD"/><path d="M93.256 268.284V755l422.452 241.25L935 753.947V268.284L513.601 25.979 93.256 268.284z" fill="#FFF"/><path d="m139.61 294.621 95.868 56.89 371.885-218.075L513.6 79.708 139.61 294.62z" fill="#005EFD"/><path d="M139.61 293.568v435.094l243.358 139.062 92.707-55.835-241.25-140.116 1.053-320.263-95.868-57.942zm651.66 56.528v321.78l95.27 55.733V294.364L645.75 154.506l-94.223 55.732L791.27 350.096z" fill="#0854C1"/><path d="m420.893 886.47 93.34 56.052L886.54 727.83l-94.388-57.11-371.259 215.75zm-35.818-469.643h49.88v280.23l93.395 55.836V278.819l-143.275 81.12v56.888z" fill="#005EFD"/><path d="m528.35 752.893 31.605-16.856V295.675l-31.605-16.856v474.074z" fill="#0854C1"/></svg>