<svg viewBox="0 0 1024 1024" xmlns="http://www.w3.org/2000/svg" width="200" height="200"><path d="M512 64a448 448 0 1 1 0 896 448 448 0 0 1 0-896z" fill="#FF6A00"/><path d="M324.8 602.624a26.752 26.752 0 0 1-21.312-25.92v-142.72A27.712 27.712 0 0 1 324.864 408l132.416-28.672 13.952-56.896h-153.92a97.6 97.6 0 0 0-98.24 96.96v169.344c.384 54.08 44.16 97.856 98.24 98.176h153.92L457.344 630.4 324.8 602.624zm385.6-280.192c54.016.128 97.92 43.584 98.56 97.6v170.176a98.368 98.368 0 0 1-98.56 98.048H555.328l14.08-56.832 132.608-28.736a27.84 27.84 0 0 0 21.376-25.92v-142.72a26.88 26.88 0 0 0-21.376-25.984l-132.544-28.8-14.08-56.832zM570.368 497.92v13.952H457.28V497.92h113.088z" fill="#FFF"/></svg>