<svg xmlns="http://www.w3.org/2000/svg" width="200" height="200"><path d="m113 51 1 39 11-9 3-1v-2c1.695-1.523 1.695-1.523 4.125-3.375 5.243-4.071 10.255-8.365 15.227-12.763C151.782 58 151.782 58 154 58v-2c4.353-4 4.353-4 8-4 .023 11.196.04 22.391.052 33.587.005 5.198.012 10.396.023 15.594.011 5.012.017 10.024.02 15.036.002 1.917.005 3.834.01 5.75.008 2.675.009 5.35.009 8.025l.01 2.426c-.01 5.468-.01 5.468-1.124 6.582-1.769.1-3.541.13-5.313.133l-3.257.004-3.43-.012-3.43.012-3.257-.004-3.012-.004C137 139 137 139 136 138c-.158-1.998-.251-4-.316-6.004l-.127-3.682-.12-3.876-.13-3.89c-.107-3.182-.209-6.365-.307-9.548l-2.3 1.934c-.995.826-1.989 1.652-3.012 2.504l-2.989 2.496C124 120 124 120 121 121v2c-1.487 1.354-3.044 2.631-4.625 3.875-4.64 3.71-9.19 7.496-13.688 11.375-1.687 1.455-3.375 2.91-5.068 4.357a231.572 231.572 0 0 0-3.265 2.864C90.327 149 90.327 149 87 149v-40l-10 8h-2v2a104.582 104.582 0 0 1-5.313 4.563l-2.988 2.44C64 128 64 128 61 129v2c-1.427 1.27-2.92 2.465-4.438 3.625-4.418 3.422-8.523 7.038-12.554 10.906C42 147 42 147 38 147c-.023-11.065-.04-22.13-.052-33.196-.005-5.138-.012-10.275-.023-15.413-.011-4.953-.017-9.907-.02-14.86-.002-1.895-.005-3.79-.01-5.684a2620.21 2620.21 0 0 1-.009-7.93l-.01-2.398c.01-5.405.01-5.405 1.124-6.519a98.712 98.712 0 0 1 5.348-.098l3.271.01 3.444.026 3.455.013c2.827.012 5.655.028 8.482.049 1.341 2.682 1.215 4.884 1.316 7.883l.127 3.535.12 3.707.13 3.73c.107 3.049.209 6.097.307 9.145l3-1v-2a104.582 104.582 0 0 1 5.313-4.563l2.988-2.44C79 77 79 77 82 76v-2c1.695-1.523 1.695-1.523 4.125-3.375 5.243-4.071 10.255-8.365 15.227-12.763C105.782 54 105.782 54 108 54v-2c2-1 2-1 5-1z" fill="#0260F9"/></svg>