<?xml version="1.0" encoding="UTF-8"?>
<!DOCTYPE svg PUBLIC "-//W3C//DTD SVG 1.1//EN" "http://www.w3.org/Graphics/SVG/1.1/DTD/svg11.dtd">
<svg xmlns="http://www.w3.org/2000/svg" version="1.1" width="400px" height="400px" style="shape-rendering:geometricPrecision; text-rendering:geometricPrecision; image-rendering:optimizeQuality; fill-rule:evenodd; clip-rule:evenodd" xmlns:xlink="http://www.w3.org/1999/xlink">
<g><path style="opacity:1" fill="#bcc7d7" d="M 270.5,162.5 C 273.5,162.5 276.5,162.5 279.5,162.5C 279.5,183.5 279.5,204.5 279.5,225.5C 276.5,225.5 273.5,225.5 270.5,225.5C 270.5,204.5 270.5,183.5 270.5,162.5 Z"/></g>
<g><path style="opacity:1" fill="#3b75c5" d="M 271.5,163.5 C 273.833,163.5 276.167,163.5 278.5,163.5C 278.5,183.833 278.5,204.167 278.5,224.5C 276.167,224.5 273.833,224.5 271.5,224.5C 271.5,204.167 271.5,183.833 271.5,163.5 Z"/></g>
<g><path style="opacity:1" fill="#e8e9eb" d="M 297.5,163.5 C 297.167,163.5 296.833,163.5 296.5,163.5C 294.167,163.5 291.833,163.5 289.5,163.5C 289.5,183.833 289.5,204.167 289.5,224.5C 291.833,224.5 294.167,224.5 296.5,224.5C 296.833,224.5 297.167,224.5 297.5,224.5C 294.713,225.477 291.713,225.81 288.5,225.5C 288.5,204.5 288.5,183.5 288.5,162.5C 291.713,162.19 294.713,162.523 297.5,163.5 Z"/></g>
<g><path style="opacity:1" fill="#3d75c4" d="M 296.5,163.5 C 296.5,183.833 296.5,204.167 296.5,224.5C 294.167,224.5 291.833,224.5 289.5,224.5C 289.5,204.167 289.5,183.833 289.5,163.5C 291.833,163.5 294.167,163.5 296.5,163.5 Z"/></g>
<g><path style="opacity:1" fill="#97b0dc" d="M 296.5,163.5 C 296.833,163.5 297.167,163.5 297.5,163.5C 298.833,183.833 298.833,204.167 297.5,224.5C 297.167,224.5 296.833,224.5 296.5,224.5C 296.5,204.167 296.5,183.833 296.5,163.5 Z"/></g>
<g><path style="opacity:1" fill="#3a74c4" d="M 308.5,163.5 C 310.833,163.5 313.167,163.5 315.5,163.5C 315.5,165.833 315.5,168.167 315.5,170.5C 315.5,168.167 315.5,165.833 315.5,163.5C 313.167,163.5 310.833,163.5 308.5,163.5 Z"/></g>
<g><path style="opacity:1" fill="#dee3e9" d="M 307.5,163.5 C 310.287,162.523 313.287,162.19 316.5,162.5C 316.81,165.713 316.477,168.713 315.5,171.5C 315.5,171.167 315.5,170.833 315.5,170.5C 315.5,168.167 315.5,165.833 315.5,163.5C 313.167,163.5 310.833,163.5 308.5,163.5C 308.167,163.5 307.833,163.5 307.5,163.5 Z"/></g>
<g><path style="opacity:1" fill="#5983c8" d="M 66.5,173.5 C 66.427,175.027 67.0937,176.027 68.5,176.5C 69.4345,177.568 69.7678,178.901 69.5,180.5C 69.5,182.167 69.5,183.833 69.5,185.5C 67.1667,185.5 64.8333,185.5 62.5,185.5C 62.7678,183.901 62.4345,182.568 61.5,181.5C 60.6554,180.329 59.9887,178.995 59.5,177.5C 59.5,175.5 58.5,174.5 56.5,174.5C 45.967,170.574 39.1336,173.908 36,184.5C 35.3333,191.833 35.3333,199.167 36,206.5C 39.4486,217.985 46.6153,221.152 57.5,216C 59.2206,214.056 60.554,211.89 61.5,209.5C 62.404,208.791 62.7373,207.791 62.5,206.5C 64.8333,206.5 67.1667,206.5 69.5,206.5C 69.5,208.167 69.5,209.833 69.5,211.5C 67.4478,218.055 63.1145,222.555 56.5,225C 51.8333,225.667 47.1667,225.667 42.5,225C 40.5087,224.626 38.842,223.793 37.5,222.5C 36.7377,220.738 35.4044,219.738 33.5,219.5C 30.3389,216.525 28.1723,212.858 27,208.5C 26.3333,200.167 26.3333,191.833 27,183.5C 32.8582,167.157 44.0248,161.99 60.5,168C 62.9962,169.331 64.9962,171.164 66.5,173.5 Z"/></g>
<g><path style="opacity:1" fill="#7b9ac6" d="M 307.5,163.5 C 307.833,163.5 308.167,163.5 308.5,163.5C 308.5,165.833 308.5,168.167 308.5,170.5C 310.833,170.5 313.167,170.5 315.5,170.5C 315.5,170.833 315.5,171.167 315.5,171.5C 312.833,171.5 310.167,171.5 307.5,171.5C 307.5,168.833 307.5,166.167 307.5,163.5 Z"/></g>
<g><path style="opacity:1" fill="#4579c6" d="M 222.5,182.5 C 222.5,184.167 222.5,185.833 222.5,187.5C 219.833,187.5 217.167,187.5 214.5,187.5C 214.173,197.348 214.506,207.014 215.5,216.5C 217.177,218.498 219.177,218.831 221.5,217.5C 223.346,219.811 223.68,222.144 222.5,224.5C 218.833,224.5 215.167,224.5 211.5,224.5C 209.496,223.327 207.996,221.66 207,219.5C 206.5,209.172 206.334,198.839 206.5,188.5C 204.735,187.539 202.735,187.205 200.5,187.5C 200.5,185.833 200.5,184.167 200.5,182.5C 202.735,182.795 204.735,182.461 206.5,181.5C 207.477,178.713 207.81,175.713 207.5,172.5C 209.833,172.5 212.167,172.5 214.5,172.5C 214.5,175.833 214.5,179.167 214.5,182.5C 217.167,182.5 219.833,182.5 222.5,182.5 Z"/></g>
<g><path style="opacity:1" fill="#9bb0d3" d="M 222.5,181.5 C 222.5,181.833 222.5,182.167 222.5,182.5C 219.833,182.5 217.167,182.5 214.5,182.5C 214.5,179.167 214.5,175.833 214.5,172.5C 212.167,172.5 209.833,172.5 207.5,172.5C 207.81,175.713 207.477,178.713 206.5,181.5C 206.335,178.15 206.502,174.817 207,171.5C 209.667,170.167 212.333,170.167 215,171.5C 215.498,174.817 215.665,178.15 215.5,181.5C 217.833,181.5 220.167,181.5 222.5,181.5 Z"/></g>
<g><path style="opacity:1" fill="#aabbd8" d="M 56.5,174.5 C 58.5,174.5 59.5,175.5 59.5,177.5C 58.1667,176.833 57.1667,175.833 56.5,174.5 Z"/></g>
<g><path style="opacity:1" fill="#b9c4d8" d="M 66.5,173.5 C 67.9063,173.973 68.573,174.973 68.5,176.5C 67.0937,176.027 66.427,175.027 66.5,173.5 Z"/></g>
<g><path style="opacity:1" fill="#b6c0d0" d="M 185.5,181.5 C 180.797,181.437 176.13,181.771 171.5,182.5C 174.017,181.027 176.85,180.36 180,180.5C 182.033,180.506 183.866,180.839 185.5,181.5 Z"/></g>
<g><path style="opacity:1" fill="#487ac6" d="M 154.5,191.5 C 154.5,202.5 154.5,213.5 154.5,224.5C 152.167,224.5 149.833,224.5 147.5,224.5C 147.828,213.986 147.494,203.653 146.5,193.5C 146.715,191.821 146.048,190.821 144.5,190.5C 138.632,187.219 133.465,188.219 129,193.5C 128.5,203.828 128.334,214.161 128.5,224.5C 125.833,224.5 123.167,224.5 120.5,224.5C 120.5,210.5 120.5,196.5 120.5,182.5C 122.833,182.5 125.167,182.5 127.5,182.5C 127.34,184.199 127.506,185.866 128,187.5C 128.717,186.956 129.217,186.289 129.5,185.5C 131.027,185.573 132.027,184.906 132.5,183.5C 134.027,183.573 135.027,182.906 135.5,181.5C 145.136,178.816 151.47,182.149 154.5,191.5 Z"/></g>
<g><path style="opacity:1" fill="#879dbf" d="M 331.5,182.5 C 328.287,182.19 325.287,182.523 322.5,183.5C 321.957,183.44 321.624,183.107 321.5,182.5C 324.98,181.194 328.313,181.194 331.5,182.5 Z"/></g>
<g><path style="opacity:1" fill="#8aa0c2" d="M 348.5,182.5 C 351.687,181.194 355.02,181.194 358.5,182.5C 358.145,183.522 357.478,184.189 356.5,184.5C 354.365,182.631 351.698,181.964 348.5,182.5 Z"/></g>
<g><path style="opacity:1" fill="#9dafce" d="M 87.5,181.5 C 87.0269,182.906 86.0269,183.573 84.5,183.5C 84.9731,182.094 85.9731,181.427 87.5,181.5 Z"/></g>
<g><path style="opacity:1" fill="#5681c7" d="M 99.5,181.5 C 100.469,182.309 101.302,183.309 102,184.5C 102.671,183.748 103.504,183.414 104.5,183.5C 107.973,185.637 110.306,188.637 111.5,192.5C 112.307,198.464 112.64,204.464 112.5,210.5C 111.21,217.582 107.21,222.415 100.5,225C 96.1667,225.667 91.8333,225.667 87.5,225C 85.4156,224.303 83.7489,223.136 82.5,221.5C 82.0269,220.094 81.0269,219.427 79.5,219.5C 73.4084,209.527 72.9084,199.193 78,188.5C 79.7772,186.21 81.9438,184.543 84.5,183.5C 86.0269,183.573 87.0269,182.906 87.5,181.5C 91.6011,180.209 95.6011,180.209 99.5,181.5 Z M 97.5,188.5 C 101.098,190.326 103.265,193.326 104,197.5C 104.667,201.5 104.667,205.5 104,209.5C 101.616,217.775 96.4498,220.275 88.5,217C 86.1064,215.048 84.6064,212.548 84,209.5C 82.0688,201.308 83.9021,194.308 89.5,188.5C 92.1667,187.167 94.8333,187.167 97.5,188.5 Z"/></g>
<g><path style="opacity:1" fill="#9aaed0" d="M 135.5,181.5 C 135.027,182.906 134.027,183.573 132.5,183.5C 132.973,182.094 133.973,181.427 135.5,181.5 Z"/></g>
<g><path style="opacity:1" fill="#5882c8" d="M 185.5,181.5 C 190.32,182.321 193.653,184.988 195.5,189.5C 195.5,191.167 195.5,192.833 195.5,194.5C 193.167,194.5 190.833,194.5 188.5,194.5C 184.945,187.695 179.945,186.361 173.5,190.5C 172.515,192.098 172.349,193.765 173,195.5C 179.868,198.425 186.701,201.425 193.5,204.5C 193.427,206.027 194.094,207.027 195.5,207.5C 199.027,215.879 196.36,221.545 187.5,224.5C 182.833,224.5 178.167,224.5 173.5,224.5C 168.68,223.679 165.347,221.012 163.5,216.5C 163.5,214.833 163.5,213.167 163.5,211.5C 165.833,211.5 168.167,211.5 170.5,211.5C 171.313,213.261 172.313,214.928 173.5,216.5C 173.821,218.048 174.821,218.715 176.5,218.5C 180.257,218.929 183.757,218.263 187,216.5C 189.101,213.312 188.601,210.645 185.5,208.5C 184.448,206.744 182.781,206.077 180.5,206.5C 173.333,206.401 167.833,203.401 164,197.5C 162.267,190.299 164.767,185.299 171.5,182.5C 176.13,181.771 180.797,181.437 185.5,181.5 Z"/></g>
<g><path style="opacity:1" fill="#527fc7" d="M 263.5,193.5 C 263.5,197.167 263.5,200.833 263.5,204.5C 254.318,204.173 245.318,204.507 236.5,205.5C 237.291,208.115 237.957,210.782 238.5,213.5C 238.427,215.027 239.094,216.027 240.5,216.5C 240.833,216.5 241.167,216.5 241.5,216.5C 241.821,218.048 242.821,218.715 244.5,218.5C 250.071,219.183 255.071,217.849 259.5,214.5C 260.919,215.005 261.585,216.005 261.5,217.5C 261.557,218.609 261.89,219.609 262.5,220.5C 260.664,222.588 258.331,223.921 255.5,224.5C 249.797,224.625 244.13,224.292 238.5,223.5C 235.911,222.581 233.911,220.914 232.5,218.5C 232.545,215.923 231.545,213.923 229.5,212.5C 226.662,205.368 226.995,198.368 230.5,191.5C 231.906,191.027 232.573,190.027 232.5,188.5C 237.087,181.8 243.42,179.3 251.5,181C 258.431,182.43 262.431,186.596 263.5,193.5 Z M 255.5,194.5 C 255.5,195.833 255.5,197.167 255.5,198.5C 249.5,198.5 243.5,198.5 237.5,198.5C 237.5,197.5 237.5,196.5 237.5,195.5C 243.078,185.465 249.078,185.131 255.5,194.5 Z"/></g>
<g><path style="opacity:1" fill="#92a8d3" d="M 99.5,181.5 C 101.553,181.402 103.22,182.069 104.5,183.5C 103.504,183.414 102.671,183.748 102,184.5C 101.302,183.309 100.469,182.309 99.5,181.5 Z"/></g>
<g><path style="opacity:1" fill="#d4d6da" d="M 129.5,185.5 C 129.217,186.289 128.717,186.956 128,187.5C 127.506,185.866 127.34,184.199 127.5,182.5C 125.167,182.5 122.833,182.5 120.5,182.5C 120.5,196.5 120.5,210.5 120.5,224.5C 123.167,224.5 125.833,224.5 128.5,224.5C 125.713,225.477 122.713,225.81 119.5,225.5C 119.5,210.833 119.5,196.167 119.5,181.5C 122.5,181.5 125.5,181.5 128.5,181.5C 128.232,183.099 128.566,184.432 129.5,185.5 Z"/></g>
<g><path style="opacity:1" fill="#7193c1" d="M 315.5,181.5 C 315.5,181.833 315.5,182.167 315.5,182.5C 313.167,182.5 310.833,182.5 308.5,182.5C 308.5,196.5 308.5,210.5 308.5,224.5C 308.167,224.5 307.833,224.5 307.5,224.5C 307.5,210.167 307.5,195.833 307.5,181.5C 310.167,181.5 312.833,181.5 315.5,181.5 Z"/></g>
<g><path style="opacity:1" fill="#3c75c5" d="M 315.5,182.5 C 315.5,196.5 315.5,210.5 315.5,224.5C 313.167,224.5 310.833,224.5 308.5,224.5C 308.5,210.5 308.5,196.5 308.5,182.5C 310.833,182.5 313.167,182.5 315.5,182.5 Z"/></g>
<g><path style="opacity:1" fill="#dbdee2" d="M 315.5,181.5 C 316.496,195.99 316.829,210.657 316.5,225.5C 313.287,225.81 310.287,225.477 307.5,224.5C 307.833,224.5 308.167,224.5 308.5,224.5C 310.833,224.5 313.167,224.5 315.5,224.5C 315.5,210.5 315.5,196.5 315.5,182.5C 315.5,182.167 315.5,181.833 315.5,181.5 Z"/></g>
<g><path style="opacity:1" fill="#5580c8" d="M 331.5,182.5 C 334.559,186.937 337.392,191.603 340,196.5C 340.941,194.273 342.108,192.273 343.5,190.5C 344.906,190.027 345.573,189.027 345.5,187.5C 345.75,185.326 346.75,183.659 348.5,182.5C 351.698,181.964 354.365,182.631 356.5,184.5C 352.895,190.865 348.895,197.032 344.5,203C 349.055,209.382 353.389,215.882 357.5,222.5C 355.365,224.369 352.698,225.036 349.5,224.5C 345.858,219.903 342.692,214.903 340,209.5C 337.308,214.903 334.142,219.903 330.5,224.5C 327.302,225.036 324.635,224.369 322.5,222.5C 323.906,222.027 324.573,221.027 324.5,219.5C 325.906,219.027 326.573,218.027 326.5,216.5C 327.906,216.027 328.573,215.027 328.5,213.5C 329.906,213.027 330.573,212.027 330.5,210.5C 331.906,210.027 332.573,209.027 332.5,207.5C 333.906,207.027 334.573,206.027 334.5,204.5C 335.124,204.083 335.457,203.416 335.5,202.5C 335.253,201.287 334.586,200.62 333.5,200.5C 329.584,195.004 325.918,189.337 322.5,183.5C 325.287,182.523 328.287,182.19 331.5,182.5 Z"/></g>
<g><path style="opacity:1" fill="#99b0d5" d="M 132.5,183.5 C 132.027,184.906 131.027,185.573 129.5,185.5C 129.973,184.094 130.973,183.427 132.5,183.5 Z"/></g>
<g><path style="opacity:1" fill="#d9dde3" d="M 69.5,180.5 C 70.4614,182.265 70.7947,184.265 70.5,186.5C 67.5,186.5 64.5,186.5 61.5,186.5C 61.5,184.833 61.5,183.167 61.5,181.5C 62.4345,182.568 62.7678,183.901 62.5,185.5C 64.8333,185.5 67.1667,185.5 69.5,185.5C 69.5,183.833 69.5,182.167 69.5,180.5 Z"/></g>
<g><path style="opacity:1" fill="#94abd4" d="M 97.5,188.5 C 94.8333,187.167 92.1667,187.167 89.5,188.5C 92.2435,185.941 94.9102,185.941 97.5,188.5 Z"/></g>
<g><path style="opacity:1" fill="#acb7c6" d="M 206.5,181.5 C 204.735,182.461 202.735,182.795 200.5,182.5C 200.5,184.167 200.5,185.833 200.5,187.5C 202.735,187.205 204.735,187.539 206.5,188.5C 204.167,188.5 201.833,188.5 199.5,188.5C 199.5,186.167 199.5,183.833 199.5,181.5C 201.833,181.5 204.167,181.5 206.5,181.5 Z"/></g>
<g><path style="opacity:1" fill="#d6dadf" d="M 222.5,181.5 C 223.468,183.607 223.802,185.941 223.5,188.5C 220.833,188.5 218.167,188.5 215.5,188.5C 215.5,197.833 215.5,207.167 215.5,216.5C 214.506,207.014 214.173,197.348 214.5,187.5C 217.167,187.5 219.833,187.5 222.5,187.5C 222.5,185.833 222.5,184.167 222.5,182.5C 222.5,182.167 222.5,181.833 222.5,181.5 Z"/></g>
<g><path style="opacity:1" fill="#b3c1d7" d="M 345.5,187.5 C 345.573,189.027 344.906,190.027 343.5,190.5C 343.427,188.973 344.094,187.973 345.5,187.5 Z"/></g>
<g><path style="opacity:1" fill="#b1bfd9" d="M 144.5,190.5 C 146.048,190.821 146.715,191.821 146.5,193.5C 145.599,192.71 144.932,191.71 144.5,190.5 Z"/></g>
<g><path style="opacity:1" fill="#abbad3" d="M 232.5,188.5 C 232.573,190.027 231.906,191.027 230.5,191.5C 230.427,189.973 231.094,188.973 232.5,188.5 Z"/></g>
<g><path style="opacity:1" fill="#dbe0e5" d="M 195.5,189.5 C 196.461,191.265 196.795,193.265 196.5,195.5C 193.615,195.806 190.948,195.473 188.5,194.5C 190.833,194.5 193.167,194.5 195.5,194.5C 195.5,192.833 195.5,191.167 195.5,189.5 Z"/></g>
<g><path style="opacity:1" fill="#b4c0d0" d="M 154.5,191.5 C 155.495,202.654 155.828,213.988 155.5,225.5C 152.5,225.5 149.5,225.5 146.5,225.5C 146.5,214.833 146.5,204.167 146.5,193.5C 147.494,203.653 147.828,213.986 147.5,224.5C 149.833,224.5 152.167,224.5 154.5,224.5C 154.5,213.5 154.5,202.5 154.5,191.5 Z"/></g>
<g><path style="opacity:1" fill="#91a0b5" d="M 255.5,194.5 C 256.451,195.919 256.784,197.585 256.5,199.5C 249.833,199.5 243.167,199.5 236.5,199.5C 236.232,197.901 236.566,196.568 237.5,195.5C 237.5,196.5 237.5,197.5 237.5,198.5C 243.5,198.5 249.5,198.5 255.5,198.5C 255.5,197.167 255.5,195.833 255.5,194.5 Z"/></g>
<g><path style="opacity:1" fill="#99a9c3" d="M 111.5,192.5 C 113.03,195.695 113.696,199.195 113.5,203C 113.497,205.69 113.164,208.19 112.5,210.5C 112.64,204.464 112.307,198.464 111.5,192.5 Z"/></g>
<g><path style="opacity:1" fill="#a4b4d2" d="M 333.5,200.5 C 334.586,200.62 335.253,201.287 335.5,202.5C 335.457,203.416 335.124,204.083 334.5,204.5C 334.567,203.041 334.234,201.708 333.5,200.5 Z"/></g>
<g><path style="opacity:1" fill="#91a5c0" d="M 263.5,193.5 C 264.483,197.298 264.817,201.298 264.5,205.5C 255.167,205.5 245.833,205.5 236.5,205.5C 245.318,204.507 254.318,204.173 263.5,204.5C 263.5,200.833 263.5,197.167 263.5,193.5 Z"/></g>
<g><path style="opacity:1" fill="#a2b1c6" d="M 69.5,211.5 C 69.5,209.833 69.5,208.167 69.5,206.5C 67.1667,206.5 64.8333,206.5 62.5,206.5C 62.7373,207.791 62.404,208.791 61.5,209.5C 61.5,208.167 61.5,206.833 61.5,205.5C 64.5,205.5 67.5,205.5 70.5,205.5C 70.7947,207.735 70.4614,209.735 69.5,211.5 Z"/></g>
<g><path style="opacity:1" fill="#abbbd6" d="M 193.5,204.5 C 194.906,204.973 195.573,205.973 195.5,207.5C 194.094,207.027 193.427,206.027 193.5,204.5 Z"/></g>
<g><path style="opacity:1" fill="#8ea5d2" d="M 180.5,206.5 C 182.781,206.077 184.448,206.744 185.5,208.5C 183.597,208.204 181.93,207.537 180.5,206.5 Z"/></g>
<g><path style="opacity:1" fill="#a3b6d4" d="M 334.5,204.5 C 334.573,206.027 333.906,207.027 332.5,207.5C 332.427,205.973 333.094,204.973 334.5,204.5 Z"/></g>
<g><path style="opacity:1" fill="#a6b7d3" d="M 332.5,207.5 C 332.573,209.027 331.906,210.027 330.5,210.5C 330.427,208.973 331.094,207.973 332.5,207.5 Z"/></g>
<g><path style="opacity:1" fill="#c3cbd6" d="M 170.5,211.5 C 168.167,211.5 165.833,211.5 163.5,211.5C 163.5,213.167 163.5,214.833 163.5,216.5C 162.539,214.735 162.205,212.735 162.5,210.5C 165.385,210.194 168.052,210.527 170.5,211.5 Z"/></g>
<g><path style="opacity:1" fill="#a7b7d1" d="M 330.5,210.5 C 330.573,212.027 329.906,213.027 328.5,213.5C 328.427,211.973 329.094,210.973 330.5,210.5 Z"/></g>
<g><path style="opacity:1" fill="#8da4d0" d="M 229.5,212.5 C 231.545,213.923 232.545,215.923 232.5,218.5C 230.654,216.97 229.654,214.97 229.5,212.5 Z"/></g>
<g><path style="opacity:1" fill="#a4b6d6" d="M 238.5,213.5 C 239.906,213.973 240.573,214.973 240.5,216.5C 239.094,216.027 238.427,215.027 238.5,213.5 Z"/></g>
<g><path style="opacity:1" fill="#abbad2" d="M 328.5,213.5 C 328.573,215.027 327.906,216.027 326.5,216.5C 326.427,214.973 327.094,213.973 328.5,213.5 Z"/></g>
<g><path style="opacity:1" fill="#a9bbd9" d="M 173.5,216.5 C 174.71,216.932 175.71,217.599 176.5,218.5C 174.821,218.715 173.821,218.048 173.5,216.5 Z"/></g>
<g><path style="opacity:1" fill="#a6b8d9" d="M 241.5,216.5 C 242.71,216.932 243.71,217.599 244.5,218.5C 242.821,218.715 241.821,218.048 241.5,216.5 Z"/></g>
<g><path style="opacity:1" fill="#abbad2" d="M 326.5,216.5 C 326.573,218.027 325.906,219.027 324.5,219.5C 324.427,217.973 325.094,216.973 326.5,216.5 Z"/></g>
<g><path style="opacity:1" fill="#a3b5d4" d="M 33.5,219.5 C 35.4044,219.738 36.7377,220.738 37.5,222.5C 35.5956,222.262 34.2623,221.262 33.5,219.5 Z"/></g>
<g><path style="opacity:1" fill="#b2c3dd" d="M 79.5,219.5 C 81.0269,219.427 82.0269,220.094 82.5,221.5C 80.9731,221.573 79.9731,220.906 79.5,219.5 Z"/></g>
<g><path style="opacity:1" fill="#c8d0de" d="M 261.5,217.5 C 263.382,218.221 263.715,219.221 262.5,220.5C 261.89,219.609 261.557,218.609 261.5,217.5 Z"/></g>
<g><path style="opacity:1" fill="#b0bfd7" d="M 324.5,219.5 C 324.573,221.027 323.906,222.027 322.5,222.5C 322.427,220.973 323.094,219.973 324.5,219.5 Z"/></g>
<g><path style="opacity:1" fill="#96add1" d="M 173.5,224.5 C 178.167,224.5 182.833,224.5 187.5,224.5C 182.81,226.959 178.143,226.959 173.5,224.5 Z"/></g>
<g><path style="opacity:1" fill="#9bb0d3" d="M 211.5,224.5 C 215.167,224.5 218.833,224.5 222.5,224.5C 218.833,227.167 215.167,227.167 211.5,224.5 Z"/></g>
<g><path style="opacity:1" fill="#88a1c8" d="M 238.5,223.5 C 244.13,224.292 249.797,224.625 255.5,224.5C 253.359,225.163 251.025,225.497 248.5,225.5C 244.859,225.685 241.526,225.019 238.5,223.5 Z"/></g>
<g><path style="opacity:1" fill="#e8ebf0" d="M 322.5,222.5 C 324.635,224.369 327.302,225.036 330.5,224.5C 327.696,225.638 324.696,225.805 321.5,225C 320.434,223.841 320.767,223.008 322.5,222.5 Z"/></g>
<g><path style="opacity:1" fill="#e9ecef" d="M 357.5,222.5 C 358.404,223.209 358.737,224.209 358.5,225.5C 355.287,225.81 352.287,225.477 349.5,224.5C 352.698,225.036 355.365,224.369 357.5,222.5 Z"/></g>
<g><path style="opacity:1" fill="#e7ebed" d="M 181.5,234.5 C 181.5,235.5 181.5,236.5 181.5,237.5C 182.5,237.5 183.5,237.5 184.5,237.5C 184.5,236.5 184.5,235.5 184.5,234.5C 185.434,235.568 185.768,236.901 185.5,238.5C 183.833,238.5 182.167,238.5 180.5,238.5C 180.232,236.901 180.566,235.568 181.5,234.5 Z"/></g>
<g><path style="opacity:1" fill="#3181ce" d="M 155.5,253.5 C 155.5,252.5 155.5,251.5 155.5,250.5C 156.147,249.726 156.48,248.726 156.5,247.5C 156.36,245.97 155.693,244.97 154.5,244.5C 154.5,243.833 154.167,243.5 153.5,243.5C 152.167,242.5 150.833,241.5 149.5,240.5C 151.05,239.28 152.716,239.28 154.5,240.5C 154.56,241.043 154.893,241.376 155.5,241.5C 156.167,239.5 156.833,237.5 157.5,235.5C 158.833,241.833 158.833,248.167 157.5,254.5C 156.817,254.137 156.15,253.804 155.5,253.5 Z"/></g>
<g><path style="opacity:1" fill="#97b0c2" d="M 154.5,255.5 C 154.833,254.833 155.167,254.167 155.5,253.5C 156.15,253.804 156.817,254.137 157.5,254.5C 158.833,248.167 158.833,241.833 157.5,235.5C 156.833,237.5 156.167,239.5 155.5,241.5C 154.893,241.376 154.56,241.043 154.5,240.5C 155.461,238.735 155.795,236.735 155.5,234.5C 156.833,234.5 158.167,234.5 159.5,234.5C 159.5,241.5 159.5,248.5 159.5,255.5C 157.833,255.5 156.167,255.5 154.5,255.5 Z"/></g>
<g><path style="opacity:1" fill="#2f85ca" d="M 181.5,234.5 C 182.5,234.5 183.5,234.5 184.5,234.5C 184.5,235.5 184.5,236.5 184.5,237.5C 183.5,237.5 182.5,237.5 181.5,237.5C 181.5,236.5 181.5,235.5 181.5,234.5 Z"/></g>
<g><path style="opacity:1" fill="#adbdcd" d="M 160.5,234.5 C 161.833,234.5 163.167,234.5 164.5,234.5C 164.5,235.833 164.5,237.167 164.5,238.5C 163.167,238.5 161.833,238.5 160.5,238.5C 160.5,237.167 160.5,235.833 160.5,234.5 Z"/></g>
<g><path style="opacity:1" fill="#0181d9" d="M 161.5,235.5 C 163.337,235.639 163.67,236.306 162.5,237.5C 161.702,237.043 161.369,236.376 161.5,235.5 Z"/></g>
<g><path style="opacity:1" fill="#9ab9d1" d="M 232.5,234.5 C 236.5,233.833 238.167,235.5 237.5,239.5C 235.833,239.5 234.167,239.5 232.5,239.5C 232.5,237.833 232.5,236.167 232.5,234.5 Z"/></g>
<g><path style="opacity:1" fill="#568ecd" d="M 198.5,241.5 C 198.5,242.833 197.833,243.5 196.5,243.5C 192.541,242.578 190.208,244.078 189.5,248C 190.86,252.175 193.526,253.342 197.5,251.5C 198.167,251.5 198.833,251.5 199.5,251.5C 199.5,251.833 199.5,252.167 199.5,252.5C 199.167,253.167 198.833,253.833 198.5,254.5C 195.5,254.5 192.5,254.5 189.5,254.5C 187.738,253.738 186.738,252.404 186.5,250.5C 186.5,248.833 186.5,247.167 186.5,245.5C 189.072,239.537 193.072,238.203 198.5,241.5 Z"/></g>
<g><path style="opacity:1" fill="#6c9acf" d="M 149.5,240.5 C 150.833,241.5 152.167,242.5 153.5,243.5C 151.486,243.392 149.82,244.058 148.5,245.5C 148.649,244.448 148.483,243.448 148,242.5C 147.583,243.756 146.75,244.423 145.5,244.5C 145.833,242.167 147.167,240.833 149.5,240.5 Z"/></g>
<g><path style="opacity:1" fill="#6d99cb" d="M 178.5,258.5 C 178.666,252.491 178.499,246.491 178,240.5C 177.5,241.667 176.667,242.5 175.5,243C 176.814,245.605 176.814,248.105 175.5,250.5C 176.926,244.591 174.926,242.591 169.5,244.5C 169.196,242.204 168.196,241.871 166.5,243.5C 166.574,241.589 167.574,240.422 169.5,240C 172.909,240.234 176.242,240.068 179.5,239.5C 179.823,246.022 179.49,252.355 178.5,258.5 Z"/></g>
<g><path style="opacity:1" fill="#6396ce" d="M 221.5,240.5 C 222.492,240.328 223.158,240.662 223.5,241.5C 223.238,243.564 222.071,244.897 220,245.5C 219.502,248.817 219.335,252.15 219.5,255.5C 218.167,255.5 216.833,255.5 215.5,255.5C 215.5,250.5 215.5,245.5 215.5,240.5C 217.509,240.535 219.509,240.535 221.5,240.5 Z"/></g>
<g><path style="opacity:1" fill="#bbcbd7" d="M 221.5,240.5 C 222.705,239.314 224.039,239.314 225.5,240.5C 225.557,241.609 225.89,242.609 226.5,243.5C 225.222,243.218 224.222,242.551 223.5,241.5C 223.158,240.662 222.492,240.328 221.5,240.5 Z"/></g>
<g><path style="opacity:1" fill="#807f7d" d="M 292.5,241.5 C 291.167,241.5 290.5,242.167 290.5,243.5C 288.708,243.366 287.042,243.699 285.5,244.5C 285.423,243.25 284.756,242.417 283.5,242C 281.527,241.505 279.527,241.338 277.5,241.5C 279.877,238.876 282.377,238.876 285,241.5C 287.623,238.876 290.123,238.876 292.5,241.5 Z"/></g>
<g><path style="opacity:1" fill="#45423f" d="M 292.5,241.5 C 293.338,241.842 293.672,242.508 293.5,243.5C 293.823,247.226 293.489,250.893 292.5,254.5C 291.833,250.687 291.166,247.021 290.5,243.5C 290.5,242.167 291.167,241.5 292.5,241.5 Z"/></g>
<g><path style="opacity:1" fill="#c1c0c0" d="M 301.5,240.5 C 300.432,241.434 299.099,241.768 297.5,241.5C 297.17,247.868 297.504,254.202 298.5,260.5C 299.167,258.5 299.833,256.5 300.5,254.5C 301.107,254.624 301.44,254.957 301.5,255.5C 300.539,257.265 300.205,259.265 300.5,261.5C 299.167,261.5 297.833,261.5 296.5,261.5C 296.5,254.5 296.5,247.5 296.5,240.5C 298.167,240.5 299.833,240.5 301.5,240.5 Z"/></g>
<g><path style="opacity:1" fill="#838180" d="M 307.5,241.5 C 308.833,241.5 309.5,242.167 309.5,243.5C 307.824,244.183 307.157,245.517 307.5,247.5C 306.911,244.266 304.911,242.933 301.5,243.5C 303.302,242.542 305.302,241.875 307.5,241.5 Z"/></g>
<g><path style="opacity:1" fill="#848281" d="M 340.5,242.5 C 338.804,240.871 337.804,241.204 337.5,243.5C 336.167,243.5 334.833,243.5 333.5,243.5C 332.449,242.778 331.782,241.778 331.5,240.5C 333.199,240.38 334.865,240.046 336.5,239.5C 338.653,239.561 339.986,240.561 340.5,242.5 Z"/></g>
<g><path style="opacity:1" fill="#a1a0a0" d="M 347.5,242.5 C 345.804,240.871 344.804,241.204 344.5,243.5C 343.596,242.791 343.263,241.791 343.5,240.5C 345.483,240.157 346.817,240.824 347.5,242.5 Z"/></g>
<g><path style="opacity:1" fill="#6e6c6a" d="M 135.5,241.5 C 135.096,246.399 135.763,251.066 137.5,255.5C 136.006,256.399 134.506,256.065 133,254.5C 128.097,257.82 124.93,256.654 123.5,251C 123.439,249.289 124.106,247.956 125.5,247C 128.167,246.333 130.833,245.667 133.5,245C 132.737,244.056 131.737,243.556 130.5,243.5C 128.41,245.106 126.076,245.606 123.5,245C 126.126,239.24 130.126,238.073 135.5,241.5 Z M 127.5,249.5 C 129.288,249.215 130.955,249.548 132.5,250.5C 132.137,251.183 131.804,251.85 131.5,252.5C 130.167,252.5 128.833,252.5 127.5,252.5C 127.5,251.5 127.5,250.5 127.5,249.5 Z"/></g>
<g><path style="opacity:1" fill="#94b0c5" d="M 160.5,239.5 C 161.833,239.5 163.167,239.5 164.5,239.5C 164.5,244.833 164.5,250.167 164.5,255.5C 163.167,255.5 161.833,255.5 160.5,255.5C 160.5,250.167 160.5,244.833 160.5,239.5 Z"/></g>
<g><path style="opacity:1" fill="#067dd0" d="M 161.5,240.5 C 162.805,242.397 163.471,244.731 163.5,247.5C 163.167,249.833 162.833,252.167 162.5,254.5C 161.507,249.88 161.173,245.214 161.5,240.5 Z"/></g>
<g><path style="opacity:1" fill="#3a85c8" d="M 184.5,240.5 C 184.5,245.5 184.5,250.5 184.5,255.5C 183.5,255.5 182.5,255.5 181.5,255.5C 181.5,250.167 181.5,244.833 181.5,239.5C 182.791,239.263 183.791,239.596 184.5,240.5 Z"/></g>
<g><path style="opacity:1" fill="#9cbdd9" d="M 198.5,241.5 C 199.609,241.557 200.609,241.89 201.5,242.5C 201.5,243.167 201.167,243.5 200.5,243.5C 199.833,243.5 199.5,243.833 199.5,244.5C 198.209,244.737 197.209,244.404 196.5,243.5C 197.833,243.5 198.5,242.833 198.5,241.5 Z"/></g>
<g><path style="opacity:1" fill="#8aaac4" d="M 229.5,236.5 C 230.434,237.568 230.768,238.901 230.5,240.5C 231.5,240.5 232.5,240.5 233.5,240.5C 233.5,241.5 233.5,242.5 233.5,243.5C 232.5,243.5 231.5,243.5 230.5,243.5C 230.5,246.167 230.5,248.833 230.5,251.5C 229.523,248.713 229.19,245.713 229.5,242.5C 233.5,242.167 233.5,241.833 229.5,241.5C 229.5,239.833 229.5,238.167 229.5,236.5 Z"/></g>
<g><path style="opacity:1" fill="#9d9b9b" d="M 276.5,241.5 C 275.195,243.397 274.529,245.731 274.5,248.5C 274.529,251.269 275.195,253.603 276.5,255.5C 275.791,256.404 274.791,256.737 273.5,256.5C 273.5,251.167 273.5,245.833 273.5,240.5C 274.791,240.263 275.791,240.596 276.5,241.5 Z"/></g>
<g><path style="opacity:1" fill="#585653" d="M 307.5,241.5 C 305.302,241.875 303.302,242.542 301.5,243.5C 300.167,246.5 300.167,249.5 301.5,252.5C 303.531,252.972 305.198,253.972 306.5,255.5C 304.833,256.833 303.167,256.833 301.5,255.5C 301.44,254.957 301.107,254.624 300.5,254.5C 299.833,256.5 299.167,258.5 298.5,260.5C 297.504,254.202 297.17,247.868 297.5,241.5C 299.099,241.768 300.432,241.434 301.5,240.5C 303.792,239.154 305.792,239.488 307.5,241.5 Z"/></g>
<g><path style="opacity:1" fill="#5e5c59" d="M 324.5,242.5 C 324.121,247.07 324.787,251.404 326.5,255.5C 323.058,254.943 319.391,254.943 315.5,255.5C 313.832,253.521 313.166,251.188 313.5,248.5C 314.635,246.787 316.302,246.12 318.5,246.5C 319.833,246.5 321.167,246.5 322.5,246.5C 322.737,245.209 322.404,244.209 321.5,243.5C 318.979,243.44 316.646,244.106 314.5,245.5C 312.463,243.298 313.13,241.465 316.5,240C 319.817,239.023 322.484,239.856 324.5,242.5 Z M 317.5,249.5 C 320.567,249.121 321.567,250.121 320.5,252.5C 318.708,252.634 317.042,252.301 315.5,251.5C 315.833,250.5 316.5,249.833 317.5,249.5 Z"/></g>
<g><path style="opacity:1" fill="#4a89cc" d="M 229.5,236.5 C 229.5,238.167 229.5,239.833 229.5,241.5C 233.5,241.833 233.5,242.167 229.5,242.5C 229.19,245.713 229.523,248.713 230.5,251.5C 231.791,251.263 232.791,251.596 233.5,252.5C 232.817,254.176 231.483,254.843 229.5,254.5C 228.504,254.586 227.671,254.252 227,253.5C 226.502,250.183 226.335,246.85 226.5,243.5C 225.89,242.609 225.557,241.609 225.5,240.5C 226.29,239.391 226.79,238.058 227,236.5C 227.977,235.226 228.811,235.226 229.5,236.5 Z"/></g>
<g><path style="opacity:1" fill="#706e6c" d="M 254.5,242.5 C 254.196,244.796 253.196,245.129 251.5,243.5C 249.856,243.286 248.356,243.62 247,244.5C 246.333,246.833 246.333,249.167 247,251.5C 247.725,252.059 248.558,252.392 249.5,252.5C 251.048,250.624 253.048,249.624 255.5,249.5C 255.696,253.641 253.696,255.975 249.5,256.5C 242.956,254.969 240.789,250.969 243,244.5C 244.266,241.365 246.599,239.698 250,239.5C 252.183,239.522 253.683,240.522 254.5,242.5 Z"/></g>
<g><path style="opacity:1" fill="#a7a6a5" d="M 259.5,241.5 C 259.573,243.027 258.906,244.027 257.5,244.5C 257.427,242.973 258.094,241.973 259.5,241.5 Z"/></g>
<g><path style="opacity:1" fill="#b2b2b1" d="M 324.5,242.5 C 325.041,246.339 326.041,250.173 327.5,254C 327.43,254.765 327.097,255.265 326.5,255.5C 324.787,251.404 324.121,247.07 324.5,242.5 Z"/></g>
<g><path style="opacity:1" fill="#a1a09f" d="M 135.5,241.5 C 136.022,245.67 137.022,249.837 138.5,254C 138.43,254.765 138.097,255.265 137.5,255.5C 135.763,251.066 135.096,246.399 135.5,241.5 Z"/></g>
<g><path style="opacity:1" fill="#979594" d="M 254.5,242.5 C 255.434,243.568 255.768,244.901 255.5,246.5C 253.027,246.912 251.694,245.912 251.5,243.5C 253.196,245.129 254.196,244.796 254.5,242.5 Z"/></g>
<g><path style="opacity:1" fill="#a5a4a3" d="M 290.5,243.5 C 291.166,247.021 291.833,250.687 292.5,254.5C 293.489,250.893 293.823,247.226 293.5,243.5C 294.645,247.311 294.812,251.311 294,255.5C 292.989,256.337 291.822,256.67 290.5,256.5C 290.5,252.167 290.5,247.833 290.5,243.5 Z"/></g>
<g><path style="opacity:1" fill="#6d6b68" d="M 331.5,240.5 C 331.782,241.778 332.449,242.778 333.5,243.5C 332.57,247.4 332.237,251.4 332.5,255.5C 331.167,255.5 329.833,255.5 328.5,255.5C 328.5,250.5 328.5,245.5 328.5,240.5C 329.5,240.5 330.5,240.5 331.5,240.5 Z"/></g>
<g><path style="opacity:1" fill="#959493" d="M 340.5,242.5 C 341.486,246.97 341.819,251.637 341.5,256.5C 340.209,256.737 339.209,256.404 338.5,255.5C 340.43,251.627 341.097,247.294 340.5,242.5 Z"/></g>
<g><path style="opacity:1" fill="#595654" d="M 276.5,241.5 C 276.833,241.5 277.167,241.5 277.5,241.5C 279.527,241.338 281.527,241.505 283.5,242C 284.756,242.417 285.423,243.25 285.5,244.5C 284.834,247.689 284.167,251.023 283.5,254.5C 282.833,250.687 282.166,247.021 281.5,243.5C 280.178,243.33 279.011,243.663 278,244.5C 277.823,248.356 277.323,252.023 276.5,255.5C 275.195,253.603 274.529,251.269 274.5,248.5C 274.529,245.731 275.195,243.397 276.5,241.5 Z"/></g>
<g><path style="opacity:1" fill="#e6e6e6" d="M 321.5,243.5 C 322.404,244.209 322.737,245.209 322.5,246.5C 321.167,246.5 319.833,246.5 318.5,246.5C 319.9,245.9 320.9,244.9 321.5,243.5 Z"/></g>
<g><path style="opacity:1" fill="#4d4b48" d="M 340.5,242.5 C 341.097,247.294 340.43,251.627 338.5,255.5C 338.693,251.434 338.36,247.434 337.5,243.5C 337.804,241.204 338.804,240.871 340.5,242.5 Z"/></g>
<g><path style="opacity:1" fill="#5b90cc" d="M 148.5,245.5 C 148.056,251.762 150.389,253.429 155.5,250.5C 155.5,251.5 155.5,252.5 155.5,253.5C 155.167,254.167 154.833,254.833 154.5,255.5C 146.091,256.368 143.091,252.701 145.5,244.5C 146.75,244.423 147.583,243.756 148,242.5C 148.483,243.448 148.649,244.448 148.5,245.5 Z"/></g>
<g><path style="opacity:1" fill="#8daec9" d="M 154.5,244.5 C 155.693,244.97 156.36,245.97 156.5,247.5C 156.48,248.726 156.147,249.726 155.5,250.5C 155.675,248.379 155.341,246.379 154.5,244.5 Z"/></g>
<g><path style="opacity:1" fill="#a8a7a6" d="M 281.5,243.5 C 282.166,247.021 282.833,250.687 283.5,254.5C 284.167,251.023 284.834,247.689 285.5,244.5C 285.5,248.5 285.5,252.5 285.5,256.5C 284.178,256.67 283.011,256.337 282,255.5C 281.501,251.514 281.334,247.514 281.5,243.5 Z"/></g>
<g><path style="opacity:1" fill="#aec1cf" d="M 199.5,244.5 C 199.833,244.5 200.167,244.5 200.5,244.5C 200.5,246.833 200.5,249.167 200.5,251.5C 200.167,251.5 199.833,251.5 199.5,251.5C 198.833,251.5 198.167,251.5 197.5,251.5C 199.148,249.544 199.815,247.211 199.5,244.5 Z"/></g>
<g><path style="opacity:1" fill="#5c5957" d="M 309.5,243.5 C 310.833,246.5 310.833,249.5 309.5,252.5C 307.824,251.817 307.157,250.483 307.5,248.5C 307.5,248.167 307.5,247.833 307.5,247.5C 307.157,245.517 307.824,244.183 309.5,243.5 Z"/></g>
<g><path style="opacity:1" fill="#c3c2c2" d="M 127.5,249.5 C 129.265,248.539 131.265,248.205 133.5,248.5C 133.843,250.483 133.176,251.817 131.5,252.5C 131.804,251.85 132.137,251.183 132.5,250.5C 130.955,249.548 129.288,249.215 127.5,249.5 Z"/></g>
<g><path style="opacity:1" fill="#c0c0c0" d="M 317.5,249.5 C 318.919,248.549 320.585,248.216 322.5,248.5C 322.843,250.483 322.176,251.817 320.5,252.5C 321.567,250.121 320.567,249.121 317.5,249.5 Z"/></g>
<g><path style="opacity:1" fill="#6e6c6a" d="M 344.5,243.5 C 344.804,241.204 345.804,240.871 347.5,242.5C 348.566,244.701 349.233,247.035 349.5,249.5C 350.301,251.793 350.968,251.46 351.5,248.5C 351.756,246.063 352.423,243.729 353.5,241.5C 354.833,240.167 356.167,240.167 357.5,241.5C 355.49,248.031 352.99,254.365 350,260.5C 348.301,261.406 346.467,261.739 344.5,261.5C 344.5,260.5 344.5,259.5 344.5,258.5C 346.59,258.55 347.923,257.55 348.5,255.5C 346.562,251.686 345.229,247.686 344.5,243.5 Z"/></g>
<g><path style="opacity:1" fill="#eff0f0" d="M 184.5,240.5 C 185.167,242.167 185.833,243.833 186.5,245.5C 186.5,247.167 186.5,248.833 186.5,250.5C 185.833,252.167 185.167,253.833 184.5,255.5C 184.5,250.5 184.5,245.5 184.5,240.5 Z"/></g>
<g><path style="opacity:1" fill="#6194d0" d="M 213.5,245.5 C 213.5,246.5 213.5,247.5 213.5,248.5C 210.359,249.321 207.025,249.821 203.5,250C 204.978,252.039 206.978,252.872 209.5,252.5C 211.179,252.285 212.179,252.952 212.5,254.5C 210.063,256.439 207.397,256.773 204.5,255.5C 204.027,254.094 203.027,253.427 201.5,253.5C 201.5,252.833 201.167,252.5 200.5,252.5C 200.5,252.167 200.5,251.833 200.5,251.5C 200.5,249.167 200.5,246.833 200.5,244.5C 200.5,244.167 200.5,243.833 200.5,243.5C 201.167,243.5 201.5,243.167 201.5,242.5C 205.213,238.527 209.047,238.527 213,242.5C 213.483,243.448 213.649,244.448 213.5,245.5 Z M 204.5,243.5 C 206.75,243.181 208.75,243.681 210.5,245C 208.167,245.667 205.833,245.667 203.5,245C 204.056,244.617 204.389,244.117 204.5,243.5 Z"/></g>
<g><path style="opacity:1" fill="#f3f4f4" d="M 215.5,240.5 C 215.5,245.5 215.5,250.5 215.5,255.5C 214.833,253.167 214.167,250.833 213.5,248.5C 213.5,247.5 213.5,246.5 213.5,245.5C 214.167,243.833 214.833,242.167 215.5,240.5 Z"/></g>
<g><path style="opacity:1" fill="#cacac9" d="M 351.5,248.5 C 350.968,251.46 350.301,251.793 349.5,249.5C 350.167,249.167 350.833,248.833 351.5,248.5 Z"/></g>
<g><path style="opacity:1" fill="#a3c1dc" d="M 212.5,254.5 C 212.179,252.952 211.179,252.285 209.5,252.5C 211.264,249.874 212.597,250.041 213.5,253C 213.43,253.765 213.097,254.265 212.5,254.5 Z"/></g>
<g><path style="opacity:1" fill="#9e9d9c" d="M 313.5,248.5 C 313.166,251.188 313.832,253.521 315.5,255.5C 314.504,255.586 313.671,255.252 313,254.5C 312.211,252.288 312.378,250.288 313.5,248.5 Z"/></g>
<g><path style="opacity:1" fill="#578ecd" d="M 178.5,258.5 C 176.969,260.68 174.802,261.68 172,261.5C 169.855,261.604 168.021,260.937 166.5,259.5C 169.5,258.167 172.5,256.833 175.5,255.5C 171.736,256.334 168.569,255.001 166,251.5C 165.199,248.633 165.366,245.966 166.5,243.5C 168.196,241.871 169.196,242.204 169.5,244.5C 169.298,246.95 169.631,249.283 170.5,251.5C 171.097,252.139 171.93,252.472 173,252.5C 174.376,252.316 175.209,251.649 175.5,250.5C 176.814,248.105 176.814,245.605 175.5,243C 176.667,242.5 177.5,241.667 178,240.5C 178.499,246.491 178.666,252.491 178.5,258.5 Z M 175.5,250.5 C 175.209,251.649 174.376,252.316 173,252.5C 171.93,252.472 171.097,252.139 170.5,251.5C 169.631,249.283 169.298,246.95 169.5,244.5C 174.926,242.591 176.926,244.591 175.5,250.5 Z"/></g>
<g><path style="opacity:1" fill="#b3c6d7" d="M 175.5,250.5 C 175.209,251.649 174.376,252.316 173,252.5C 171.93,252.472 171.097,252.139 170.5,251.5C 172.292,251.634 173.958,251.301 175.5,250.5 Z"/></g>
<g><path style="opacity:1" fill="#767472" d="M 257.5,244.5 C 258.906,244.027 259.573,243.027 259.5,241.5C 266.272,238.056 270.272,240.223 271.5,248C 270.87,254.817 267.203,257.483 260.5,256C 256.691,252.754 255.691,248.921 257.5,244.5 Z M 261.5,243.5 C 267.173,243.498 268.84,246.165 266.5,251.5C 264.647,252.76 262.814,252.76 261,251.5C 260.398,248.779 260.565,246.113 261.5,243.5 Z"/></g>
<g><path style="opacity:1" fill="#9c9b9a" d="M 307.5,248.5 C 307.157,250.483 307.824,251.817 309.5,252.5C 309.5,254.5 308.5,255.5 306.5,255.5C 305.198,253.972 303.531,252.972 301.5,252.5C 304.911,253.067 306.911,251.734 307.5,248.5 Z"/></g>
<g><path style="opacity:1" fill="#d7d7d7" d="M 315.5,251.5 C 317.042,252.301 318.708,252.634 320.5,252.5C 319.903,253.139 319.07,253.472 318,253.5C 316.624,253.316 315.791,252.649 315.5,251.5 Z"/></g>
<g><path style="opacity:1" fill="#e3e9ed" d="M 199.5,252.5 C 199.833,252.5 200.167,252.5 200.5,252.5C 201.167,252.5 201.5,252.833 201.5,253.5C 200.609,254.11 199.609,254.443 198.5,254.5C 198.833,253.833 199.167,253.167 199.5,252.5 Z"/></g>
<g><path style="opacity:1" fill="#8eb1d4" d="M 189.5,254.5 C 192.5,254.5 195.5,254.5 198.5,254.5C 195.5,257.167 192.5,257.167 189.5,254.5 Z"/></g>
<g><path style="opacity:1" fill="#a8c2d7" d="M 201.5,253.5 C 203.027,253.427 204.027,254.094 204.5,255.5C 202.973,255.573 201.973,254.906 201.5,253.5 Z"/></g>
<g><path style="opacity:1" fill="#baccd9" d="M 233.5,252.5 C 234.404,253.209 234.737,254.209 234.5,255.5C 232.585,255.784 230.919,255.451 229.5,254.5C 231.483,254.843 232.817,254.176 233.5,252.5 Z"/></g>
</svg>
