<svg viewBox="0 0 1024 1024" xmlns="http://www.w3.org/2000/svg" width="200" height="200"><path d="M0 512C0 229.222 229.222 0 512 0s512 229.222 512 512-229.222 512-512 512S0 794.778 0 512z" fill="#7A8CD2"/><path d="M758.613 281.207a1.792 1.792 0 0 0-.938-.819 591.599 591.599 0 0 0-144.299-44.032 2.219 2.219 0 0 0-2.321 1.075 398.114 398.114 0 0 0-17.954 36.301 548.437 548.437 0 0 0-162.082 0 364.663 364.663 0 0 0-18.245-36.318 2.27 2.27 0 0 0-2.32-1.075 589.943 589.943 0 0 0-144.3 44.032 2.048 2.048 0 0 0-.955.82c-91.904 135.1-117.077 266.888-104.721 397.038a2.355 2.355 0 0 0 .921 1.622 591.565 591.565 0 0 0 177.016 88.064 2.321 2.321 0 0 0 2.492-.82 412.16 412.16 0 0 0 36.215-57.958 2.185 2.185 0 0 0-1.229-3.072 390.212 390.212 0 0 1-55.296-25.941 2.27 2.27 0 0 1-1.126-1.792 2.219 2.219 0 0 1 .887-1.912c3.738-2.73 7.39-5.563 10.991-8.465a2.202 2.202 0 0 1 2.287-.307c116.02 52.122 241.63 52.122 356.267 0a2.219 2.219 0 0 1 2.321.273 295.065 295.065 0 0 0 11.008 8.5 2.253 2.253 0 0 1 .905 1.91 2.202 2.202 0 0 1-1.093 1.793 366.029 366.029 0 0 1-55.33 25.907 2.27 2.27 0 0 0-1.314 1.297 2.185 2.185 0 0 0 .102 1.81 462.507 462.507 0 0 0 36.182 57.94 2.287 2.287 0 0 0 2.491.837 589.636 589.636 0 0 0 177.323-88.064 2.27 2.27 0 0 0 .905-1.605c14.796-150.46-24.747-281.173-104.79-397.039zM394.445 598.99c-34.936 0-63.71-31.574-63.71-70.315s28.211-70.315 63.71-70.315c35.772 0 64.273 31.83 63.71 70.315 0 38.741-28.229 70.315-63.71 70.315zm235.554 0c-34.918 0-63.71-31.574-63.71-70.315S594.517 458.36 630 458.36c35.772 0 64.273 31.83 63.71 70.315 0 38.741-27.938 70.315-63.71 70.315z" fill="#FFF"/></svg>