<svg viewBox="0 0 1024 1024" xmlns="http://www.w3.org/2000/svg" width="200" height="200"><path d="M925.915 521.545c.512-29.623-2.56-59.282-9.033-88.1H512V593.48h237.714a210.469 210.469 0 0 1-88.137 139.886l-.804 5.303 127.963 99.181 8.85.842c81.299-75.155 128.366-185.783 128.366-317.148" fill="#4285F4"/><path d="M512 943.177c116.37 0 214.199-38.363 285.623-104.484L661.577 733.22a254.83 254.83 0 0 1-149.43 43.117 259.95 259.95 0 0 1-245.395-179.273l-5.12.512L128.549 700.49l-1.683 4.754a429.86 429.86 0 0 0 385.097 237.898" fill="#34A853"/><path d="M266.606 597.211a264.046 264.046 0 0 1-14.336-85.357c.183-28.965 4.937-57.783 13.97-85.395l-.146-5.632L131.29 316.233l-4.425 2.012a430.263 430.263 0 0 0 0 387.181L266.57 597.211" fill="#FBBC05"/><path d="M512 247.515a237.934 237.934 0 0 1 166.656 64.256l121.673-118.784A414.647 414.647 0 0 0 511.817 80.86a430.811 430.811 0 0 0-385.316 237.715l139.41 108.251A260.974 260.974 0 0 1 512 247.48" fill="#EB4335"/></svg>