<?xml version="1.0" standalone="no"?><!DOCTYPE svg PUBLIC "-//W3C//DTD SVG 1.1//EN" "http://www.w3.org/Graphics/SVG/1.1/DTD/svg11.dtd"><svg t="1747043132978" class="icon" viewBox="0 0 1024 1024" version="1.1" xmlns="http://www.w3.org/2000/svg" p-id="8260" width="40" height="40" xmlns:xlink="http://www.w3.org/1999/xlink"><path d="M433.728 0C382.72 0 336.32 23.424 303.872 60.8c-51.008 70.4-13.888 168.704 13.952 224.832 27.904 56.128 153.152 257.472 157.76 262.208 4.544 4.672 9.28 4.672 9.28 0 0-4.736 13.888-299.712 4.544-369.92A998.016 998.016 0 0 0 433.728 0zM160 135.68c-9.28 0-74.24 70.272-83.52 131.2-9.28 60.8 23.168 107.712 97.408 159.168 78.912 56.128 259.84 154.496 264.448 149.888 4.544-9.344-69.568-140.544-134.592-238.848C238.912 238.72 169.344 135.744 160 135.744z m23.168 599.424c55.68 23.424 143.872-32.832 167.04-46.72l64.96-46.912-315.52 9.344c18.624 32.832 46.4 60.992 83.52 84.288z m9.28-257.472c-55.68-28.16-171.52-93.696-176.256-93.696-4.608 0-23.168 84.288 13.952 145.28 37.12 60.8 106.752 79.552 139.136 84.224 37.12 4.736 250.496 4.736 250.496 0-4.608-4.8-171.584-107.776-227.328-135.808zM712.128 60.8C679.68 23.424 633.28 0 582.272 0c-23.168 56.128-41.728 112.384-51.008 173.248-9.28 70.208 4.608 369.92 4.608 369.92 0 4.672 4.544 4.672 9.28 0 4.544-4.736 134.528-210.752 157.696-262.208 23.168-51.456 60.288-149.888 9.28-220.16zM1004.416 384c-4.608 0-120.704 65.472-176.256 93.632-55.68 28.096-222.72 131.2-227.328 135.808 0 4.736 213.44 4.736 250.56 0 32.448-4.672 102.016-23.424 139.136-84.288 32.448-60.928 13.888-145.216 13.888-145.216z m-338.688 304.32c23.168 14.08 111.36 70.208 167.04 46.784 37.12-18.752 64.96-51.456 83.392-88.96l-315.52-9.344 65.088 51.52z m273.664-421.44c-4.544-60.928-74.24-131.2-83.52-131.2-9.28 0-88.128 103.04-148.48 201.408-60.224 98.304-134.528 229.504-129.792 238.848 4.544 9.408 185.6-93.632 264.384-149.888 74.24-51.456 102.144-93.632 97.408-159.168z" fill="#EA020A" p-id="8261"></path><path d="M71.232 1002.24V931.2h81.28v70.976h26.24v-160.256h-26.24v66.88h-81.28v-66.88h-26.24v160.256h26.24z m222.656 3.136c21.12 0 37.44-5.44 49.088-16.192 11.712-11.008 17.536-26.88 17.536-47.808v-99.392h-26.24v99.84c0 13.952-3.392 24-9.664 30.72-6.528 6.592-16.832 9.92-30.72 9.92-14.208 0-24.512-3.392-30.784-9.856-6.464-6.784-9.6-16.832-9.6-30.72v-99.84H227.2v99.328c0 20.928 5.824 36.8 17.728 48 11.2 10.56 27.584 16 48.96 16z m127.424-3.2l14.592-40.128H503.04l14.528 40.192h28.032l-61.248-160.256h-29.824l-61.248 160.256h28.032z m73.856-61.696h-51.392l25.344-70.208h0.896l25.152 70.208z m142.72 61.76l31.36-120.512h0.896l31.232 120.512h27.84l46.208-160.256h-29.632l-30.08 121.856h-0.832l-31.68-121.856h-27.136l-31.616 121.856h-0.896l-30.08-121.856H563.84l46.016 160.256h28.032z m290.816 0v-22.464h-93.12v-48.512h62.08v-22.4h-62.08v-44.48h89.344v-22.4h-115.584v160.256h119.36z m67.968 0v-160.256h-26.24v160.256h26.24z" fill="#010101" p-id="8262"></path></svg>