<svg id="图层_1" data-name="图层 1" xmlns="http://www.w3.org/2000/svg" xmlns:xlink="http://www.w3.org/1999/xlink" viewBox="0 0 146.61 146.61"><defs><style>.cls-1{fill:url(#未命名的渐变_8);}.cls-2{fill:url(#未命名的渐变_7);}.cls-3{fill:url(#未命名的渐变_7-2);}.cls-4{fill:#7b358f;}</style><linearGradient id="未命名的渐变_8" x1="36.4" y1="42.76" x2="124.15" y2="91.15" gradientUnits="userSpaceOnUse"><stop offset="0" stop-color="#348bcc"/><stop offset="1" stop-color="#2a6cb6"/></linearGradient><linearGradient id="未命名的渐变_7" x1="104.54" y1="79.61" x2="71.65" y2="80.94" xlink:href="#未命名的渐变_8"/><linearGradient id="未命名的渐变_7-2" x1="61.76" y1="70.81" x2="79.66" y2="33.73" xlink:href="#未命名的渐变_8"/></defs><path class="cls-1" d="M123.41,31.19V65.35A52.62,52.62,0,0,1,108,102.58L83.25,127.33a12,12,0,0,1-16.77.25L39.75,102.4A52.67,52.67,0,0,1,23.2,64.07V31.19A15.43,15.43,0,0,1,38.63,15.76H59.34c1,0,18,.14,13.75,9.6H38.8a6.37,6.37,0,0,0-6.37,6.37V64.78A42.94,42.94,0,0,0,45.93,96l24.3,22.89A6.3,6.3,0,0,0,79,118.8L101.6,96.19a42.94,42.94,0,0,0,12.58-30.37V31.73a6.37,6.37,0,0,0-6.36-6.37H98.13A15.52,15.52,0,0,0,94,15.76h14A15.43,15.43,0,0,1,123.41,31.19Z"/><path class="cls-2" d="M104.36,67.4S101,89.32,80.14,92.82h0c-11.37.37-9.15-11.38-6.75-18.55C74.69,74.53,94.85,78.25,104.36,67.4Z"/><path class="cls-3" d="M91.05,31.08l-1.76,4.28L75.51,68.89a0,0,0,0,1,0,0,.16.16,0,0,0,0,.06c-.17.37-.88,1.93-1.67,4.1h0l-.48,1.18h.07c-2.4,7.17-4.62,18.92,6.75,18.55a36.5,36.5,0,0,1-8.12.41s-30.26.37-18.78-23.48L73.09,25.36c4.23-9.46-12.74-9.6-13.75-9.6h20.4a13.13,13.13,0,0,1,8,2.6C90.88,20.78,93,24.71,91.05,31.08Z"/><path class="cls-4" d="M75.47,69l-1.67,4.1C74.59,70.9,75.3,69.34,75.47,69Z"/></svg>