<?xml version="1.0" standalone="no"?><!DOCTYPE svg PUBLIC "-//W3C//DTD SVG 1.1//EN" "http://www.w3.org/Graphics/SVG/1.1/DTD/svg11.dtd"><svg t="1750130815937" class="icon" viewBox="0 0 1024 1024" version="1.1" xmlns="http://www.w3.org/2000/svg" p-id="22702" width="200" height="200" xmlns:xlink="http://www.w3.org/1999/xlink"><path d="M874.666667 469.333333H810.666667V298.666667a85.333333 85.333333 0 0 0-85.333334-85.333334h-170.666666V149.333333A106.666667 106.666667 0 0 0 448 42.666667 106.666667 106.666667 0 0 0 341.333333 149.333333V213.333333H170.666667a85.333333 85.333333 0 0 0-85.333334 85.333334v162.133333h64c64 0 115.2 51.2 115.2 115.2 0 64-51.2 115.2-115.2 115.2H85.333333V853.333333a85.333333 85.333333 0 0 0 85.333334 85.333334h162.133333v-64c0-64 51.2-115.2 115.2-115.2 64 0 115.2 51.2 115.2 115.2V938.666667H725.333333a85.333333 85.333333 0 0 0 85.333334-85.333334v-170.666666h64a106.666667 106.666667 0 0 0 106.666666-106.666667 106.666667 106.666667 0 0 0-106.666666-106.666667z" fill="#66BB6A" p-id="22703"></path></svg>