<svg xmlns="http://www.w3.org/2000/svg" width="200" height="200" viewBox="0 0 1024 1024"><path d="m256.073-.26 6.9-.012c6.28-.01 12.559-.008 18.838-.004 6.09.002 12.18-.005 18.269-.012 13.982-.015 27.965-.017 41.947-.014a57147.693 57147.693 0 0 0 44.106-.01 112930.19 112930.19 0 0 1 87.793-.003c25.957.005 51.913-.003 77.87-.021a103325.577 103325.577 0 0 1 96.966-.027h2.327c11.553.002 23.106-.005 34.66-.015C698.9-.39 712.051-.392 725.203-.38c6.703.006 13.405.008 20.108-.005 6.15-.01 12.3-.007 18.45.007 2.21.002 4.42 0 6.631-.008 18.91-.064 37.659 1.401 56.044 6.073l3.1.77C861.864 14.728 892.055 28.248 919 48l1.752 1.277c7.25 5.318 13.98 11.043 20.53 17.192a197.26 197.26 0 0 0 7.03 6.218c3.263 2.833 6.079 5.886 8.864 9.184a118.023 118.023 0 0 0 3.804 4.227C973.285 99.164 983.102 114.475 992 130l1.3 2.268c13.036 23.04 21.71 48.268 27.012 74.17l.447 2.178c3.006 15.814 3.532 31.404 3.502 47.457l.011 6.9c.01 6.28.008 12.559.004 18.838-.002 6.09.005 12.18.012 18.269.015 13.982.017 27.965.014 41.947a57147.693 57147.693 0 0 0 .01 44.106c.008 21.778.012 43.556.008 65.334v2.485l-.003 12.467v2.5l-.002 5.007c-.005 25.957.003 51.913.021 77.87a103325.577 103325.577 0 0 1 .027 96.966v2.327c-.002 11.553.005 23.106.015 34.66.012 13.151.014 26.303.002 39.455-.006 6.703-.008 13.405.005 20.108.01 6.15.007 12.3-.007 18.45-.002 2.21 0 4.42.008 6.631.064 18.91-1.401 37.659-6.074 56.044l-.77 3.1C1009.274 861.864 995.753 892.055 976 919l-1.277 1.752c-5.318 7.25-11.043 13.98-17.192 20.53a197.26 197.26 0 0 0-6.219 7.03c-2.832 3.263-5.885 6.079-9.183 8.864a118.023 118.023 0 0 0-4.227 3.804C924.836 973.285 909.525 983.102 894 992c-.748.43-1.497.858-2.268 1.3-23.04 13.036-48.268 21.71-74.17 27.012l-2.178.447c-15.814 3.006-31.404 3.532-47.457 3.502l-6.9.011c-6.28.01-12.559.008-18.838.004-6.09-.002-12.18.005-18.269.012-13.982.015-27.965.017-41.947.014a57147.693 57147.693 0 0 0-44.106.01c-21.778.008-43.556.012-65.334.008h-2.485l-12.467-.003h-2.5l-5.007-.002c-25.957-.005-51.913.003-77.87.021a103325.618 103325.618 0 0 1-96.966.027h-2.327c-11.553-.002-23.106.005-34.66.015-13.151.012-26.303.014-39.455.002a7463.85 7463.85 0 0 0-20.108.005c-6.15.01-12.3.007-18.45-.007-2.21-.002-4.42 0-6.631.008-18.91.064-37.659-1.401-56.045-6.074l-3.1-.77C162.137 1009.274 131.946 995.753 105 976l-1.752-1.277c-7.25-5.318-13.98-11.043-20.53-17.192a197.26 197.26 0 0 0-7.03-6.219c-3.263-2.832-6.079-5.885-8.864-9.183a118.023 118.023 0 0 0-3.804-4.227C50.715 924.836 40.898 909.525 32 894l-1.3-2.268c-13.036-23.04-21.71-48.268-27.013-74.17l-.446-2.178C.235 799.57-.291 783.98-.261 767.927l-.011-6.9c-.01-6.28-.008-12.559-.004-18.838.002-6.09-.005-12.18-.012-18.269-.015-13.982-.017-27.965-.014-41.947a57147.693 57147.693 0 0 0-.01-44.106c-.008-21.778-.012-43.556-.008-65.334v-2.485l.003-12.467v-2.5l.002-5.007c.005-25.957-.003-51.913-.021-77.87a103325.577 103325.577 0 0 1-.026-99.293c0-11.553-.006-23.106-.016-34.66a21620.75 21620.75 0 0 1-.002-39.455c.006-6.703.008-13.405-.005-20.108-.01-6.15-.007-12.3.007-18.45.002-2.21 0-4.42-.008-6.631-.064-18.91 1.401-37.659 6.073-56.045l.77-3.1C14.728 162.137 28.248 131.946 48 105l1.277-1.752c5.318-7.25 11.043-13.98 17.192-20.53a197.26 197.26 0 0 0 6.218-7.03c2.833-3.263 5.886-6.079 9.184-8.864a118.023 118.023 0 0 0 4.227-3.804C99.164 50.715 114.475 40.898 130 32c.748-.43 1.497-.858 2.268-1.3 23.04-13.036 48.268-21.71 74.17-27.013l2.178-.446C224.43.235 240.02-.291 256.073-.261z" fill="#FEFEFE"/><path d="M640.734 369.348c13.25 11.704 13.25 11.704 18.266 18.652a1704.2 1704.2 0 0 0 4.188-1.375l2.355-.773c2.44-.801 2.44-.801 4.629-1.852 27.026-9.556 59.033-4.245 84.285 7.625 25.31 12.97 45.36 35.5 54.287 62.637l.647 2.18.618 2.082c.517 1.846.977 3.707 1.432 5.57 1.972 3.677 3.52 4.117 7.381 5.292L821 470c1.29.454 2.577.918 3.86 1.395l1.922.696c22.594 8.284 42.34 21.09 55.218 41.909l1.953 2.996c10.74 17.401 15.451 36.939 15.36 57.254l-.015 3.893c-.112 9.004-.72 17.188-3.298 25.857l-1.031 3.695c-8.676 28.548-28.434 50.317-54.344 64.555-18.237 9.661-37.184 11.898-57.536 11.904l-4.496.013c-4.096.012-8.193.018-12.29.022-4.426.006-8.853.018-13.28.029-10.68.024-21.361.039-32.042.052l-9.062.011a82835.095 82835.095 0 0 1-69.41.07l-3.273.001c-17.48.013-34.96.046-52.439.088-17.979.042-35.958.066-53.937.071-10.08.004-20.162.015-30.243.048-8.59.028-17.178.04-25.767.028-4.374-.005-8.747-.003-13.12.022-18.152.099-35.193-.262-52.73-5.609l-2.672-.773c-24.641-7.18-46.936-27.59-59.363-49.606C335.153 603.418 331.248 575.034 338 547c7.88-25.667 22.99-47.582 45-63l3.086-2.191C396.809 474.69 408.729 471.464 421 468l.304-2.332C425.008 437.58 425.008 437.58 429 425l.824-2.996c5.164-17.595 16.76-32.857 29.176-46.004l2.195-2.426c46.929-49.871 129.591-47.11 179.54-4.226z" fill="#DADADA"/><path d="M273.07 167.707c7.395 3.346 13.833 8.345 20.39 13.063 4.322 3.098 8.726 6.054 13.165 8.98 7.033 4.646 13.966 9.422 20.875 14.25 2.901 2.02 5.804 4.037 8.707 6.055 1.827 1.272 3.651 2.548 5.473 3.828 2.452 1.719 4.915 3.42 7.382 5.117l2.18 1.547 2.043 1.39 1.746 1.215c2.816 1.213 4.932 1.15 7.969.848 2.51-1.122 2.51-1.122 4.852-2.832l2.783-1.89 2.99-2.09c1.608-1.1 3.217-2.198 4.826-3.296 1.702-1.165 3.4-2.336 5.096-3.51 5.093-3.52 10.223-6.986 15.348-10.459 1.735-1.176 3.468-2.355 5.2-3.533 12.694-8.63 25.472-17.132 38.255-25.629 1.884-1.252 3.767-2.506 5.65-3.761 4.663-.764 8.17-.43 12.375 1.75 10.63 9.11 10.903 28.83 13.043 42.012.305 1.848.61 3.697.917 5.545.796 4.812 1.585 9.626 2.371 14.44.96 5.87 1.93 11.74 2.9 17.61.751 4.56 1.502 9.12 2.249 13.68l.415 2.531c.255 1.552.508 3.105.762 4.657.592 3.606 1.222 7.197 1.968 10.775l1.962.34c7.267 1.29 14.469 2.8 21.67 4.41l3.511.784c2.426.543 4.851 1.088 7.276 1.634 3.728.837 7.46 1.663 11.19 2.488 2.363.53 4.724 1.062 7.086 1.594l3.393.745 3.108.708 2.746.614L549 294l1 2c-5.617 1.547-11.16 2.504-16.93 3.291-25.697 3.55-50.71 11.662-72.57 25.98-3.131 2.041-5.71 3.596-9.5 3.729-1.852-1.082-1.852-1.082-3.625-2.813l-2.086-1.96L443 322c-11.723-11.405-11.723-11.405-26-19v-2l-2.57-.82c-3.51-1.208-6.886-2.611-10.305-4.055-29.137-11.959-62.163-11.198-91.125.875-10.547 4.775-20.39 10.188-29 18l-2.535 2.145C263.609 332.522 251.928 354.11 247 377l-.535 2.393c-6.419 31.195.24 64.096 17.535 90.607 12.45 17.398 28.713 29.432 47 40-1.294 4.47-2.615 8.914-4.172 13.3-10.491 29.63-11.695 61.177-4.208 91.699C303 617 303 617 303 621c-2.098 1.824-2.098 1.824-5.063 3.688l-3.296 2.085c-1.213.744-2.427 1.486-3.641 2.227l-1.928 1.196a892.988 892.988 0 0 1-5.885 3.616l-1.845 1.13C269.562 642 269.562 642 263 641c-5.915-3.38-8.197-9.304-10.07-15.592-3.133-14.697-5.627-29.506-8.129-44.321-.604-3.574-1.214-7.148-1.822-10.722A301709.999 301709.999 0 0 1 239 547l-.511-3.008c-.419-2.455-.842-4.91-1.266-7.363l-.66-3.838c-.424-2.732-.424-2.732-1.563-4.791-2.713-.65-5.366-1.17-8.113-1.629l-2.597-.456c-2.866-.5-5.734-.989-8.602-1.477l-6.005-1.048a6982.192 6982.192 0 0 0-30.35-5.203c-4.713-.802-9.426-1.608-14.139-2.414-3.396-.577-6.794-1.146-10.191-1.715l-6.331-1.078-2.874-.472c-15.475-2.665-15.475-2.665-19.86-7.133-2.591-4.513-3.073-7.298-1.938-12.375 3.985-10.663 10.751-19.627 17.39-28.758 2.688-3.743 5.271-7.555 7.86-11.367 5.674-8.33 11.42-16.61 17.194-24.872a1177.582 1177.582 0 0 0 10.412-15.124c1.302-1.981 1.302-1.981 2.144-4.879h2c-.976-7.36-2.992-12.442-7.313-18.438l-1.607-2.318a729.727 729.727 0 0 0-3.376-4.822c-2.211-3.143-4.371-6.318-6.532-9.495-3.235-4.753-6.495-9.489-9.753-14.226A3017.238 3017.238 0 0 1 132.25 329l-2.134-3.169-1.975-2.956-1.765-2.633c-2.932-4.778-3.144-9.785-2.376-15.242 5.73-7.92 14.68-8.93 23.7-10.488l3.794-.679c3.369-.602 6.739-1.192 10.11-1.78 3.475-.61 6.948-1.23 10.421-1.848a4395.355 4395.355 0 0 1 35.62-6.19 1814.828 1814.828 0 0 1 13.565-2.265l3.79-.629 3.188-.518L231 280l2.755-.56c2.625-1.351 2.625-1.351 3.404-4.957.278-1.549.53-3.102.763-4.659l.442-2.584c.483-2.848.934-5.7 1.386-8.553.335-1.994.672-3.989 1.011-5.983 1.31-7.75 2.561-15.508 3.814-23.267a6338.59 6338.59 0 0 1 3.539-21.67c.565-3.468 1.11-6.938 1.653-10.409.351-2.156.704-4.312 1.057-6.467l.442-2.94c1.292-7.677 3.696-14.243 9.609-19.513 4.434-2.04 7.519-2.328 12.195-.731z" fill="#FED54F"/><path d="m361.688 321.75 3.396-.063c7.458-.034 13.855.923 20.916 3.313l2.085.696C402.417 330.74 417.499 338.937 426 352c.183 5.01-3.447 8.672-6.375 12.438-3.368 4.371-6.325 8.501-8.625 13.562h-2l-1 5h-2l-3 9h-2l-.79 2.977c-.998 3.499-2.289 6.813-3.672 10.176-3.133 7.623-5.592 15.08-7.12 23.188-1.118 5.572-2.735 9.715-7.452 13.133-2.539 1.593-5.116 3.097-7.716 4.589-13.113 7.83-25.051 16.74-35.184 28.244-2.352 2.544-4.107 3.707-7.418 4.795-4.857-.136-7.51-1.802-11.46-4.477l-2.124-1.389c-5.852-3.91-11.118-8.22-16.064-13.236l-2.324-2.293c-14.63-15.227-21.044-33.759-20.988-54.582l-.05-3.645c-.003-7.65.918-14.235 3.362-21.48l1.14-3.531c7.508-20.09 21.98-36.14 41.423-45.344 12.214-5.538 23.82-7.315 37.125-7.375z" fill="#F16461"/><path d="M835.188 724.75A73.123 73.123 0 0 1 839 727l3.188 1.813C849.153 734.23 853.18 740.283 855 749c1.29 10.92.374 20.21-5 30h-2l-1 5h-2l-.706 2.053c-1.604 3.654-3.743 6.824-5.993 10.1l-1.416 2.086a2363.83 2363.83 0 0 1-4.572 6.698c-1.05 1.538-2.099 3.077-3.147 4.615a7652.316 7652.316 0 0 1-4.724 6.922c-3.04 4.451-6.046 8.922-9.02 13.417l-2.01 3.015a642.554 642.554 0 0 0-3.542 5.38c-6.082 9.08-12.99 15.367-23.87 17.714-11.193 1.224-19.588-.676-28.75-7.125-6.676-5.518-11.259-13.218-12.25-21.875-1.138-12.64 2.893-22.167 9.988-32.453l1.745-2.592c1.849-2.742 3.714-5.474 5.58-8.205 1.916-2.83 3.828-5.663 5.74-8.496 1.256-1.859 2.512-3.716 3.77-5.572 3.406-5.03 6.77-10.08 10.044-15.198l2.018-3.151c1.144-1.798 2.282-3.6 3.411-5.408 10.715-16.783 27.234-29.899 47.891-21.175zm-252.602 2.934c3.688 2.774 6.864 5.427 9.414 9.316v2h2c4.345 8.51 4.284 18.884 2.344 28.125-4.28 12.692-12.963 23.972-20.469 34.938l-2.807 4.12a6323.544 6323.544 0 0 1-5.535 8.108 2630.288 2630.288 0 0 0-6.549 9.635l-3.359 4.949-1.454 2.153c-14.892 21.838-14.892 21.838-25.308 24.523-10.662 1.673-20.76 1.744-29.863-4.551l-2.75-1.688c-7.113-7.31-11.127-17.14-11.625-27.312.995-18.904 15.603-35.556 25.813-50.563l3.853-5.693c26.539-39.194 26.539-39.194 39.725-43.385 9.577-1.734 18.42.019 26.57 5.325zm132.371 2.847c6.157 5.688 10.546 13.481 11.246 21.914.295 16.86-8.817 29.86-18.027 43.287-2.718 3.977-5.146 7.88-7.176 12.268h-2l-.789 2.163c-2.235 5.234-5.624 9.804-8.774 14.524l-2.056 3.147C680.354 838.398 672.928 847.356 662 854l-1.848 1.168c-8.234 3.183-19.235.962-27.152-2.168v-2l-2.063-.5c-6.995-3.572-10.554-9.956-13.21-17.105-3.335-10.991-1.83-20.73 2.96-31.02L622 800h2l.831-2.229c1.097-2.6 2.317-4.758 3.868-7.108l1.641-2.502 1.777-2.677 1.856-2.815c1.3-1.972 2.604-3.942 3.909-5.911a3664.94 3664.94 0 0 0 5.852-8.867c5.884-8.917 11.817-17.796 17.95-26.543l1.45-2.082c6.228-8.799 13.001-13.906 23.366-17.016 11.003-1.1 19.668 1.404 28.457 8.281zm-280.207-8.093 2.391.002c7.112.213 12.119 2.34 17.859 6.56l2.813 1.75c7.294 7.503 10.745 16.725 10.75 27.093-.53 14.34-10.066 26.44-17.935 37.78-2.79 4.073-5.452 8.228-8.128 12.377-1.088 1.675-2.176 3.35-3.266 5.023a2332.296 2332.296 0 0 0-4.83 7.45C415.601 849.588 415.601 849.588 400 856c-2.783.433-5.5.475-8.313.438l-2.267-.01c-5.95-.15-10.23-1.408-15.42-4.428v-2l-1.781-.781c-6.143-3.374-10.262-9.851-12.559-16.324-2.815-12.346-.348-24.278 6.25-34.995a369.302 369.302 0 0 1 3.367-5.029l1.84-2.771a1544.06 1544.06 0 0 1 5.82-8.663c1.27-1.903 2.54-3.807 3.807-5.712 7.56-11.337 15.238-22.592 22.959-33.819a326.58 326.58 0 0 0 3.514-5.296c1.931-2.827 3.914-4.682 6.596-6.798l2.457-1.98c6.051-4.06 11.343-5.416 18.48-5.394z" fill="#B4E3FB"/></svg>