<svg xmlns="http://www.w3.org/2000/svg" width="200" height="200" viewBox="0 0 72 72" fill="none"><circle cx="36" cy="36" r="35" stroke="#A0CC40" stroke-width="2"/><path d="M13.492 16.202h6.793l-1.43 6.792h-6.793l1.43-6.792zm6.344 9.741h6.792l-1.43 6.792h-6.792l1.43-6.792z" fill="#A0CC40"/><path fill-rule="evenodd" clip-rule="evenodd" d="M21.981 22.961c-.136-.136.888-5.49 1.208-6.313.163-.418 1.151-.446 15.735-.446 13.276 0 15.582.053 15.702.366.077.201-.099 1.538-.391 2.972-.435 2.13-.669 2.992-.348 3.336.257.275.868.22 2.015.22 2.152 0 2.196.012 2.057.574-.078.316-1.59 7.412-3.361 15.768-1.77 8.356-3.278 15.393-3.35 15.64-.125.418-1.01.446-13.894.446-7.568 0-13.808-.086-13.866-.191-.058-.105 1.414-7.316 3.27-16.023 1.858-8.707 3.329-15.917 3.269-16.023-.06-.105-1.864-.191-4.01-.191-2.145 0-3.962-.06-4.036-.135zM35.671 44.7c1.204.55 2.602.824 4.196.824a13.31 13.31 0 0 0 3.24-.399 9.593 9.593 0 0 0 3.107-1.407l-2.496-3.638a5.31 5.31 0 0 1-1.514.77 5.877 5.877 0 0 1-1.647.239c-.938 0-1.655-.186-2.15-.558-.324-.263-.538-.644-.642-1.142H47.94c.089-.39.16-.796.212-1.221.071-.425.107-.86.107-1.302 0-1.257-.292-2.363-.877-3.32-.584-.955-1.425-1.708-2.523-2.256-1.097-.55-2.425-.824-3.983-.824-1.806 0-3.39.363-4.753 1.09-1.346.725-2.39 1.716-3.134 2.973-.744 1.257-1.115 2.683-1.115 4.276 0 1.363.336 2.55 1.009 3.558.672 1.01 1.602 1.788 2.788 2.337zm2.337-8.205h4.774a1.8 1.8 0 0 0-.127-.664 1.696 1.696 0 0 0-.743-.93c-.354-.23-.788-.345-1.301-.345-.726 0-1.302.195-1.727.584-.388.356-.68.807-.876 1.355z" fill="#A0CC40"/></svg>