<svg class="icon" viewBox="0 0 1024 1024" xmlns="http://www.w3.org/2000/svg" width="200" height="200"><path d="M512 .445C229.477.445.445 229.477.445 512.003c0 282.521 229.032 511.552 511.555 511.552s511.555-229.032 511.555-511.552C1023.555 229.477 794.523.445 512 .445zm0 900.338c-47.087 0-85.26-39.416-85.26-88.035S464.913 724.71 512 724.71c47.085 0 85.257 39.417 85.257 88.038s-38.17 88.035-85.257 88.035zm66.202-316.928c0 48.621-26.946 88.035-60.183 88.035h-12.036c-33.24 0-60.183-39.414-60.183-88.035l-36.11-352.14c0-48.62 26.944-88.031 60.181-88.031h84.258c33.239 0 60.183 39.412 60.183 88.032l-36.11 352.14z"/></svg>