<svg viewBox="0 0 1024 1024" xmlns="http://www.w3.org/2000/svg" width="200" height="200"><path d="M819.733 102.74a479.288 479.288 0 0 0-59.608-38.286 33.923 33.923 0 0 0-43.131 8.723L589.054 242.31l-7.269 13.084a70.27 70.27 0 0 1-59.123 27.624h-25.2a228.256 228.256 0 0 0-213.718 239.886 25.2 25.2 0 0 0 14.539 21.808 60.093 60.093 0 1 1-82.385 71.723v-3.877a60.577 60.577 0 0 1 11.63-48.461 36.831 36.831 0 0 0 7.755-26.655A279.14 279.14 0 0 1 512 234.071a51.854 51.854 0 0 0 41.193-20.839L670.955 56.7a21.323 21.323 0 0 0-11.63-33.923A511.758 511.758 0 0 0 263.39 959.546a33.923 33.923 0 0 0 43.616-9.208L436.4 780.72l8.724-12.115a70.754 70.754 0 0 1 59.123-27.624 218.563 218.563 0 0 0 25.2 0A230.194 230.194 0 0 0 697.61 650.36a225.832 225.832 0 0 0 45.554-149.263 25.2 25.2 0 0 0-14.538-21.808 60.093 60.093 0 0 1-35.862-43.13 60.093 60.093 0 0 1 117.278-27.14 14.054 14.054 0 0 0 0 4.362 61.062 61.062 0 0 1-11.631 48.462 36.831 36.831 0 0 0-7.754 26.654 279.14 279.14 0 0 1-276.718 303.371 51.854 51.854 0 0 0-41.192 20.84L355.953 969.237a21.808 21.808 0 0 0 11.146 33.923 512.242 512.242 0 0 0 452.634-900.42z" fill="#009FFF"/></svg>