<svg xmlns="http://www.w3.org/2000/svg" width="192" height="192"><path d="M108 0h4c5.532 22.525 10.827 45.097 15.966 67.715.91 4.005 1.824 8.01 2.737 12.014A38952.02 38952.02 0 0 1 136 103l.487-2.171c.737-3.24 1.5-6.471 2.263-9.704l.766-3.418.78-3.262.7-3.015C142 79 142 79 144.105 77.66L146 77c2.256 3.383 2.996 6.526 3.88 10.421l.532 2.283c.58 2.49 1.15 4.983 1.72 7.476l1.203 5.197c.84 3.633 1.674 7.266 2.506 10.9 1.066 4.654 2.142 9.307 3.222 13.958.83 3.578 1.653 7.157 2.476 10.737.394 1.716.79 3.431 1.189 5.146.556 2.4 1.104 4.8 1.651 7.202.166.706.33 1.413.5 2.141.805 3.565 1.409 6.88 1.121 10.539-1 1-1 1-3.278 1.123l-3.081-.003-3.523.004-3.9-.01h-4.079c-3.702 0-7.404-.006-11.107-.013-3.865-.006-7.73-.006-11.595-.008-7.324-.003-14.648-.011-21.972-.021-8.336-.011-16.672-.017-25.008-.022-17.152-.01-34.305-.028-51.457-.05-1.142-3.426-.824-4.658-.012-8.114l.728-3.154.811-3.4.812-3.485c.858-3.68 1.728-7.357 2.599-11.035l1.748-7.474C35.116 121.223 36.554 115.11 38 109l4-1c.481 1.416.96 2.833 1.438 4.25l.808 2.39c.674 2.11 1.229 4.211 1.754 6.36 4.075-14.458 7.324-29.115 10.688-43.75.888-3.863 1.778-7.726 2.67-11.588.551-2.39 1.101-4.779 1.65-7.169l.749-3.25.656-2.857C63 50 63 50 64 47l3-1c2.764 2.764 3.088 5.864 3.91 9.563l.522 2.263c.55 2.39 1.091 4.782 1.63 7.174.545 2.392 1.092 4.783 1.641 7.174.342 1.488.68 2.977 1.015 4.467.84 3.78.84 3.78 2.282 7.359l5-21 4-1 4 9 .6-2.65c1.866-8.228 3.734-16.454 5.607-24.679.962-4.229 1.923-8.458 2.882-12.688.924-4.08 1.851-8.158 2.781-12.235.355-1.56.709-3.119 1.061-4.679.492-2.177.989-4.353 1.487-6.53l.854-3.761C107 1 107 1 108 0z" fill="#1678FE"/><path d="M66 46c4.012 2.675 4.291 5.677 5.367 10.129l.614 2.492a715.25 715.25 0 0 1 1.255 5.259c.626 2.629 1.3 5.243 1.975 7.86C78.07 83.416 78.004 92.421 75 104l-.823 3.623c-.786 3.45-1.63 6.882-2.49 10.314a740352709.556 740352709.556 0 0 1-2.769 11.276c-1.748 7.207-3.397 14.436-5.052 21.664l-.702 3.064-.61 2.678A394.543 394.543 0 0 1 61 163h48v1H27c-1.142-3.426-.824-4.658-.012-8.114l.728-3.154.811-3.4.812-3.485c.858-3.68 1.728-7.357 2.599-11.035l1.748-7.474C35.116 121.223 36.554 115.11 38 109l4-1c.481 1.416.96 2.833 1.438 4.25l.808 2.39c.674 2.11 1.229 4.211 1.754 6.36 4.075-14.458 7.324-29.115 10.688-43.75.888-3.863 1.778-7.726 2.67-11.588.551-2.39 1.101-4.779 1.65-7.169l.749-3.25.656-2.857C63 50 63 50 64 47l2-1z" fill="#167AFE"/><path d="m84 62 4 1c.467 1.58.923 3.165 1.375 4.75l.773 2.672c.727 3.055 1.266 6.042 1.754 9.14 1.078 6.66 2.648 13.148 4.285 19.688 3.018 12.249 5.788 24.538 8.415 36.876 1.411 6.576 2.92 13.06 4.856 19.502C110 158 110 158 110 163H61c.62-4.953 1.191-9.256 2.383-14l.838-3.387.904-3.613a1217.188 1217.188 0 0 0 7.438-32.063l.435-2A2715.867 2715.867 0 0 0 77.282 87.9c.413-1.97.828-3.938 1.243-5.907.513-2.437 1.02-4.875 1.522-7.315l.691-3.288.595-2.874C81.968 66.122 82.803 64.16 84 62z" fill="#36E1E2"/><path d="m144 77 3 1c1.039 2.834 1.039 2.834 1.958 6.593l.509 2.04c.524 2.119 1.03 4.242 1.533 6.367l.928 3.826c.933 3.89 1.843 7.785 2.744 11.682l.992 4.272c.684 2.949 1.366 5.898 2.046 8.848.871 3.772 1.75 7.543 2.63 11.314.681 2.924 1.358 5.85 2.033 8.776.322 1.392.646 2.783.971 4.174.453 1.936.898 3.874 1.343 5.812l.77 3.328c.504 2.753.729 5.18.543 7.968-1 1-1 1-2.766 1.114l-2.27-.016-2.45-.01-2.577-.025-2.587-.014c-2.117-.012-4.233-.03-6.35-.049l.087-3.103c-.082-3.687-.576-6.695-1.478-10.256l-.896-3.605-.963-3.786c-.645-2.603-1.283-5.208-1.922-7.813l-.947-3.843a700.034 700.034 0 0 1-3.381-14.344l-.52-2.175c-1.939-8.906.36-17.31 2.458-26.013l.658-2.86.65-2.73.584-2.46C142 79 142 79 144 77z" fill="#37E1E2"/><path d="m40 108 3 1c.95 2.371.95 2.371 1.688 5.438l.761 2.996c1.456 9.427-.086 17.567-2.386 26.754-2.451 9.827-2.451 9.827-4.063 19.812H27c-1.137-3.412-.833-4.652-.044-8.098l.709-3.144.792-3.39.797-3.478c.559-2.427 1.121-4.853 1.688-7.278a2222.69 2222.69 0 0 0 2.568-11.186l1.635-7.059.773-3.402.738-3.126.641-2.765C38 109 38 109 40 108z" fill="#38E1E2"/></svg>