<?xml version="1.0" standalone="no"?><!DOCTYPE svg PUBLIC "-//W3C//DTD SVG 1.1//EN" "http://www.w3.org/Graphics/SVG/1.1/DTD/svg11.dtd"><svg t="1747365642427" class="icon" viewBox="0 0 1024 1024" version="1.1" xmlns="http://www.w3.org/2000/svg" p-id="4628" width="40" height="40" xmlns:xlink="http://www.w3.org/1999/xlink"><path d="M865.905929 472.578561l-137.917759 539.191238a9.407847 9.407847 0 0 0 0 4.479927 10.047837 10.047837 0 0 0 9.983838 7.679875h275.643521a9.983838 9.983838 0 0 0 10.047836-7.679875 9.983838 9.983838 0 0 0 0-4.479927l-138.493749-539.191238a10.175835 10.175835 0 0 0-19.327686 0M107.07026 594.752575l-106.878263 416.953225a9.983838 9.983838 0 0 0 10.111836 12.159802h212.796542a10.239834 10.239834 0 0 0 8.063869-3.583942 9.727842 9.727842 0 0 0 1.919968-4.031934 9.407847 9.407847 0 0 0 0-4.479927l-106.878263-417.081223a9.791841 9.791841 0 0 0-3.583942-5.119916 10.239834 10.239834 0 0 0-11.967805 0 9.791841 9.791841 0 0 0-3.583942 5.119916z" fill="#00E5E5" p-id="4629"></path><path d="M295.3552 249.478186L100.798362 1011.833798a9.727842 9.727842 0 0 0 1.919969 8.319865 9.983838 9.983838 0 0 0 7.679875 3.839937h389.241675a10.111836 10.111836 0 0 0 9.983838-7.615876 10.047837 10.047837 0 0 0 0.063999-4.479927L314.618887 249.414187a9.791841 9.791841 0 0 0-3.64794-5.119917 10.239834 10.239834 0 0 0-11.967806 0 9.791841 9.791841 0 0 0-3.647941 5.119917" fill="#006EFF" p-id="4630"></path><path d="M631.029746 7.050125a9.791841 9.791841 0 0 0-3.583942-5.119916 10.239834 10.239834 0 0 0-11.967806 0 9.791841 9.791841 0 0 0-3.64794 5.119916l-265.979678 1004.783673a9.983838 9.983838 0 0 0 10.047837 12.031804h531.575362a10.175835 10.175835 0 0 0 10.047836-7.615876 10.111836 10.111836 0 0 0 0-4.479927L631.029746 7.050125z" fill="#006EFF" p-id="4631"></path><path d="M435.640921 360.324385L266.939662 1011.769799a9.599844 9.599844 0 0 0 1.983968 8.57586 9.983838 9.983838 0 0 0 8.063869 3.647941h336.63453a10.239834 10.239834 0 0 0 8.127868-3.71194 10.111836 10.111836 0 0 0 1.983967-8.511861L454.904608 360.260386a10.239834 10.239834 0 0 0-9.599844-7.039886 10.239834 10.239834 0 0 0-9.599844 7.039886" fill="#00E5E5" p-id="4632"></path></svg>