<svg viewBox="0 0 1024 1024" xmlns="http://www.w3.org/2000/svg" width="200" height="200"><path d="M735.9 924.583a467.656 467.656 0 0 1-223.945 56.765c-81.03 0-157.295-20.569-223.855-56.765h447.844zm111.082-83.879a471.377 471.377 0 0 1-49.998 44.21H227.06a467.167 467.167 0 0 1-49.998-44.21h669.963zm65.536-83.834c-9.35 15.36-19.59 30.052-30.676 44.165H142.158a475.225 475.225 0 0 1-30.676-44.165h801.036zm66.159-294.957a467.033 467.033 0 0 1-44.433 255.199H89.756a467.033 467.033 0 0 1-44.477-254.665l138.106 2.716 180.313 201.194 147.946-173.1L695.207 672.99l156.85-211.033h126.62zM512 42.652c204.177 0 377.856 130.36 442.413 312.409H824.988L693.337 512.223 515.607 348.16 359.111 514.048 235.52 356.174H69.187C133.432 173.546 307.467 42.652 512 42.652z" fill="#0070B6"/></svg>