<svg class="icon" viewBox="0 0 1024 1024" xmlns="http://www.w3.org/2000/svg" width="40" height="40"><path d="M0 0h1024v1024H0z" fill="#FFF"/><path d="m705.024 658.901-147.925 79.232A82.304 82.304 0 0 0 512 811.82V934.4l353.579-188.416a25.515 25.515 0 0 0 14.25-22.827V345.941l-115.114 60.16a82.304 82.304 0 0 0-45.056 73.686V634.58c-.427 11.222-6.358 18.688-14.635 24.32" fill="#DA4725"/><path d="M304.768 637.397V482.091c0-30.379-16.64-58.496-45.099-73.899l-115.498-62.293v376.618c0 9.387 6.314 18.774 14.25 22.87L512 934.443V811.435c0-30.379-16.64-58.539-45.099-73.899l-147.925-77.653c-8.277-5.632-14.208-13.142-14.208-22.486" fill="#028DCF"/><path d="M665.77 181.333 525.313 92.672a31.53 31.53 0 0 0-27.392 0L162.56 303.915l109.27 67.328c27.434 16.725 60.458 16.725 86.015 0l140.459-88.662c1.877-2.09 3.755-2.09 5.973-2.09a25.856 25.856 0 0 1 21.419 2.09l140.459 88.662c27.434 16.725 60.458 16.725 86.016 0l109.226-67.328-195.626-122.539z" fill="#72AE2C"/></svg>