<svg class="icon" width="30" height="30" viewBox="0 0 1024 1024" xmlns="http://www.w3.org/2000/svg"><path d="M512 0q512 0 512 512t-512 512Q0 1024 0 512T512 0z" fill="#FFF"/><path d="M832.032 367.205c4.123.024 8.243.265 12.34.723a345.91 345.91 0 0 1 91.865 25.368c8.523 3.818 10.629 6.91 3.291 14.608a296.456 296.456 0 0 0-51.46 75.942c-14.15 29.776-29.614 58.928-44.09 88.576a190.048 190.048 0 0 1-43.992 58.567c-45.276 40.963-98.052 58.238-158.264 49.88-69.096-9.575-134.541-32.903-196.365-63.667-3.85-1.908-6.581-3.29-8.851-4.672a4.483 4.483 0 0 1-2.096-3.943 4.483 4.483 0 0 1 2.358-3.79l4.278-2.304c50.079-26.749 91.866-64.027 132.138-103.216 17.011-16.451 33.331-33.725 50.507-50.045a291.126 291.126 0 0 1 135.2-72.387c11.12-2.666 22.34-4.837 33.527-7.239h.528l23.82-2.204" fill="#133C9A"/><path d="M348.029 850.682c-7.6-.428-26.322-2.994-28.56-3.29a452.614 452.614 0 0 1-139.312-40.734c-25.466-11.91-49.98-25.96-74.559-39.648-16.155-9.016-23.492-23.032-23.328-42.05.528-70.347.528-140.704 0-211.074-.262-45.275-1.579-90.548-2.27-135.792a36.602 36.602 0 0 1 1.875-11.744c2.731-8.16 8.359-8.656 13.92-3.29 6.416 6.185 11.515 13.686 17.866 19.74 56.856 56 117.1 107.296 184.651 149.546a1017.56 1017.56 0 0 0 118.451 65.246c65.642 29.81 132.928 56.1 203.44 72.78 62.285 14.742 122.861 5.463 173.333-34.086 15.4-13.161 23.034-22.803 41.294-47.118a303.662 303.662 0 0 1-31.555 61.464c-11.745 18.491-38.2 43.168-58.368 62.515-30.633 29.613-70.677 53.632-108.253 73.901-40.963 22.078-83.54 39.714-129.044 49.354-23.328 5.824-57.023 12.504-68.637 13.161-2.04-.165-8.983 1.415-12.536 1.12-29.975 2.269-48.466 3.125-78.408 0z" fill="#3370FF"/><path d="M219.28 172.912a44.256 44.256 0 0 1 6.283 0c128.848 0 256.645 2.072 385.328 2.072.224 0 .443.069.626.198a303.498 303.498 0 0 1 33.133 33.856c29.054 28.89 50.704 78.968 65.51 109.503 7.371 21.091 18.491 41.26 23.757 64.752v.429a281.552 281.552 0 0 0-38.3 15.596c-37.214 18.887-54.126 32.672-85.022 63.108-16.813 16.45-31.192 31.29-53.533 52.348-7.008 6.581-24.841 23.264-25.137 22.736-5.923-10.464-106.08-206.4-307.283-360.552" fill="#00D6B9"/></svg>